<svg width="35" height="37" viewBox="0 0 35 37" fill="none" xmlns="http://www.w3.org/2000/svg">
<path d="M17.5 1.14822L30.1261 27.25H4.87389L17.5 1.14822Z" stroke="#C22CA1"/>
<path d="M17.5 33.4527L30.3039 27.75L4.69612 27.75L17.5 33.4527Z" stroke="#C22CA1"/>
<line x1="17.5" y1="2" x2="17.5" y2="33" stroke="#C22CA1"/>
<path d="M10.1766 11.56L9.72296 12.4512L9.7326 12.4561L9.74234 12.4608L10.1766 11.56ZM12.0366 13.08L11.2386 13.6826L11.2386 13.6826L12.0366 13.08ZM13.1366 15.34L12.174 15.6107L12.1765 15.6198L12.1792 15.6287L13.1366 15.34ZM12.8566 21.52L13.7794 21.9054L13.7811 21.9013L12.8566 21.52ZM10.8966 24.06L11.4826 24.8704L11.4907 24.8644L10.8966 24.06ZM2.03664 24.76L1.29949 25.4357L1.31417 25.4517L1.32953 25.4671L2.03664 24.76ZM2.03664 11.24L2.74375 11.9471L2.74375 11.9471L2.03664 11.24ZM9.91664 22.7L9.31401 21.9019L9.30613 21.908L9.91664 22.7ZM11.3366 20.72L10.3991 20.3722L10.3966 20.3789L10.3942 20.3856L11.3366 20.72ZM11.5366 15.94L10.5643 16.1734L10.567 16.1849L10.5701 16.1964L11.5366 15.94ZM10.7566 14.18L9.93133 14.7447L9.93633 14.752L9.94146 14.7592L10.7566 14.18ZM9.39664 12.98L8.9238 13.8612L8.93263 13.8658L9.39664 12.98ZM3.31664 12.54L2.60953 11.8329L0.90243 13.54H3.31664V12.54ZM3.47664 12.38H4.47664V9.96578L2.76953 11.6729L3.47664 12.38ZM3.47664 23.64L2.61915 24.1545L4.47664 27.2503V23.64H3.47664ZM3.35664 23.44V22.44H1.59045L2.49915 23.9545L3.35664 23.44ZM7.61664 12C8.46098 12 9.15367 12.1613 9.72296 12.4512L10.6303 10.6688C9.73294 10.212 8.71897 10 7.61664 10V12ZM9.74234 12.4608C10.3476 12.7526 10.8423 13.1578 11.2386 13.6826L12.8347 12.4774C12.2443 11.6955 11.499 11.0874 10.6109 10.6592L9.74234 12.4608ZM11.2386 13.6826C11.6509 14.2286 11.9649 14.8673 12.174 15.6107L14.0993 15.0693C13.8284 14.106 13.4091 13.2381 12.8347 12.4774L11.2386 13.6826ZM12.1792 15.6287C12.4026 16.3693 12.5166 17.1582 12.5166 18H14.5166C14.5166 16.9751 14.3774 15.9907 14.094 15.0513L12.1792 15.6287ZM12.5166 18C12.5166 19.1635 12.3171 20.2055 11.9322 21.1387L13.7811 21.9013C14.2762 20.7012 14.5166 19.3965 14.5166 18H12.5166ZM11.9339 21.1346C11.5593 22.0314 11.0151 22.7294 10.3026 23.2556L11.4907 24.8644C12.5115 24.1106 13.274 23.1152 13.7794 21.9054L11.9339 21.1346ZM10.3107 23.2496C9.65102 23.7266 8.77625 24 7.61664 24V26C9.09703 26 10.4089 25.6467 11.4826 24.8704L10.3107 23.2496ZM7.61664 24H2.61664V26H7.61664V24ZM2.61664 24C2.62349 24 2.64964 24.0018 2.68399 24.016C2.71838 24.0302 2.73844 24.0476 2.74375 24.0529L1.32953 25.4671C1.67744 25.815 2.12528 26 2.61664 26V24ZM2.77379 24.0843C2.78185 24.0931 2.7961 24.1126 2.80664 24.1403C2.8169 24.1674 2.81664 24.1838 2.81664 24.18H0.816641C0.816641 24.6447 0.975699 25.0825 1.29949 25.4357L2.77379 24.0843ZM2.81664 24.18V11.8H0.816641V24.18H2.81664ZM2.81664 11.8C2.81664 11.7956 2.81705 11.8183 2.80239 11.8557C2.78705 11.8947 2.76424 11.9266 2.74375 11.9471L1.32953 10.5329C0.977006 10.8854 0.816641 11.3352 0.816641 11.8H2.81664ZM2.74375 11.9471C2.73844 11.9524 2.71838 11.9698 2.68399 11.984C2.64964 11.9982 2.62349 12 2.61664 12V10C2.12528 10 1.67744 10.185 1.32953 10.5329L2.74375 11.9471ZM2.61664 12H7.61664V10H2.61664V12ZM7.41664 24.44C8.60367 24.44 9.66965 24.153 10.5271 23.492L9.30613 21.908C8.88363 22.2337 8.28295 22.44 7.41664 22.44V24.44ZM10.5192 23.498C11.3401 22.8782 11.9252 22.0517 12.2791 21.0544L10.3942 20.3856C10.1614 21.0416 9.79986 21.5351 9.31404 21.902L10.5192 23.498ZM12.2742 21.0678C12.6268 20.1174 12.7966 19.0913 12.7966 18H10.7966C10.7966 18.882 10.6598 19.6693 10.3991 20.3722L12.2742 21.0678ZM12.7966 18C12.7966 17.1991 12.7001 16.4258 12.5032 15.6836L10.5701 16.1964C10.7198 16.7608 10.7966 17.3609 10.7966 18H12.7966ZM12.509 15.7066C12.3223 14.9285 12.0131 14.2219 11.5718 13.6008L9.94146 14.7592C10.2202 15.1515 10.431 15.6181 10.5643 16.1734L12.509 15.7066ZM11.5819 13.6153C11.1401 12.9696 10.5611 12.461 9.86065 12.0942L8.93263 13.8658C9.35223 14.0856 9.67984 14.3771 9.93133 14.7447L11.5819 13.6153ZM9.86946 12.0988C9.14584 11.7106 8.31499 11.54 7.41664 11.54V13.54C8.06496 13.54 8.55411 13.6628 8.92382 13.8612L9.86946 12.0988ZM7.41664 11.54H3.31664V13.54H7.41664V11.54ZM4.02375 13.2471L4.18375 13.0871L2.76953 11.6729L2.60953 11.8329L4.02375 13.2471ZM2.47664 12.38V23.64H4.47664V12.38H2.47664ZM4.33413 23.1255L4.21413 22.9255L2.49915 23.9545L2.61915 24.1545L4.33413 23.1255ZM3.35664 24.44H7.41664V22.44H3.35664V24.44ZM18.4121 24.76L17.705 25.4671L17.705 25.4671L18.4121 24.76ZM18.1721 12.8L18.9314 12.1492L17.1721 10.0967V12.8H18.1721ZM18.4121 13.08L18.9802 13.903L19.894 13.2722L19.1714 12.4292L18.4121 13.08ZM16.1521 14.64L15.584 13.817L15.5786 13.8208L16.1521 14.64ZM15.1121 14.54L14.3773 15.2183L14.3909 15.233L14.405 15.2471L15.1121 14.54ZM15.2921 13.26L15.8185 14.1103L15.8309 14.1025L15.8432 14.0945L15.2921 13.26ZM18.4721 11.16L17.9421 10.312L17.9315 10.3186L17.921 10.3255L18.4721 11.16ZM18.7921 11.02L18.5496 10.0499L18.5496 10.0499L18.7921 11.02ZM19.1121 11L18.9881 11.9923L19.0499 12H19.1121V11ZM19.6721 11.24L18.9039 11.8802L18.9329 11.915L18.965 11.9471L19.6721 11.24ZM19.6321 24.76L18.9538 24.0252L18.9391 24.0388L18.925 24.0529L19.6321 24.76ZM19.0121 24C19.0048 24 19.0226 23.9992 19.0535 24.0115C19.0855 24.0243 19.1084 24.0421 19.1192 24.0529L17.705 25.4671C18.0648 25.8269 18.5247 26 19.0121 26V24ZM19.1192 24.0529C19.1245 24.0582 19.1419 24.0783 19.1561 24.1126C19.1703 24.147 19.1721 24.1732 19.1721 24.18H17.1721C17.1721 24.6714 17.3571 25.1192 17.705 25.4671L19.1192 24.0529ZM19.1721 24.18V12.8H17.1721V24.18H19.1721ZM17.4129 13.4508L17.6529 13.7308L19.1714 12.4292L18.9314 12.1492L17.4129 13.4508ZM17.844 12.257L15.584 13.817L16.7202 15.463L18.9802 13.903L17.844 12.257ZM15.5786 13.8208C15.5969 13.808 15.6203 13.7961 15.6459 13.7883C15.671 13.7807 15.6881 13.78 15.6921 13.78V15.78C16.0565 15.78 16.413 15.6781 16.7256 15.4592L15.5786 13.8208ZM15.6921 13.78C15.699 13.78 15.7251 13.7818 15.7595 13.796C15.7938 13.8102 15.8139 13.8276 15.8192 13.8329L14.405 15.2471C14.7529 15.595 15.2007 15.78 15.6921 15.78V13.78ZM15.8469 13.8617C15.8368 13.8508 15.8456 13.8573 15.8561 13.8826C15.8673 13.9096 15.8721 13.9381 15.8721 13.96H13.8721C13.8721 14.4521 14.0663 14.8814 14.3773 15.2183L15.8469 13.8617ZM15.8721 13.96C15.8721 13.9668 15.8712 13.984 15.8648 14.0082C15.8583 14.0327 15.8479 14.0574 15.8346 14.0795C15.8071 14.1254 15.7858 14.1305 15.8185 14.1103L14.7658 12.4097C14.2342 12.7388 13.8721 13.2727 13.8721 13.96H15.8721ZM15.8432 14.0945L19.0232 11.9945L17.921 10.3255L14.741 12.4255L15.8432 14.0945ZM19.0021 12.008C19.0325 11.989 19.0431 11.988 19.0346 11.9901L18.5496 10.0499C18.3278 10.1053 18.125 10.1977 17.9421 10.312L19.0021 12.008ZM19.0346 11.9901C19.0306 11.9912 19.0237 11.9925 19.0145 11.9931C19.0053 11.9936 18.9962 11.9933 18.9881 11.9923L19.2361 10.0077C19.0041 9.97872 18.7732 9.99394 18.5496 10.0499L19.0346 11.9901ZM19.1121 12C19.1209 12 19.0898 12.0013 19.0382 11.9791C18.9827 11.9554 18.9356 11.9182 18.9039 11.8802L20.4403 10.5998C20.0869 10.1757 19.5984 10 19.1121 10V12ZM18.965 11.9471C18.9445 11.9266 18.9217 11.8947 18.9064 11.8557C18.8917 11.8183 18.8921 11.7956 18.8921 11.8H20.8921C20.8921 11.3352 20.7317 10.8854 20.3792 10.5329L18.965 11.9471ZM18.8921 11.8V24.18H20.8921V11.8H18.8921ZM18.8921 24.18C18.8921 24.1623 18.8963 24.1268 18.9146 24.0859C18.923 24.0672 18.9323 24.0521 18.9404 24.0411C18.9484 24.0302 18.9538 24.0252 18.9538 24.0252L20.3104 25.4948C20.6794 25.1542 20.8921 24.6983 20.8921 24.18H18.8921ZM18.925 24.0529C18.932 24.0459 18.9422 24.0371 18.9557 24.0283C18.9692 24.0194 18.9831 24.0125 18.9961 24.0074C19.0232 23.997 19.0328 24 19.0121 24V26C19.496 26 19.9685 25.8378 20.3392 25.4671L18.925 24.0529ZM25.1716 24.26L24.522 25.0203L24.5288 25.026L25.1716 24.26ZM23.4916 21.68L22.5452 22.0032L22.5489 22.0134L23.4916 21.68ZM23.4916 14.3L22.5501 13.9629L22.5465 13.9733L23.4916 14.3ZM25.1716 11.74L24.5287 10.974L24.522 10.9798L25.1716 11.74ZM30.7116 11.74L30.062 12.5003L30.0688 12.506L30.7116 11.74ZM32.3916 14.3L31.4465 14.6267L31.4465 14.6267L32.3916 14.3ZM32.3916 21.68L31.4453 21.3569L31.4453 21.3569L32.3916 21.68ZM30.7116 24.26L30.0687 23.494L30.062 23.4998L30.7116 24.26ZM29.7316 22.9L29.055 22.1636L29.045 22.173L29.7316 22.9ZM30.8516 20.98L31.8078 21.273L31.809 21.2687L30.8516 20.98ZM30.8516 15.02L29.8942 15.3087L29.8955 15.313L30.8516 15.02ZM29.7316 13.1L29.045 13.827L29.0554 13.8368L29.066 13.8463L29.7316 13.1ZM26.1516 13.1L26.8274 13.8372L26.8283 13.8363L26.1516 13.1ZM25.0316 15.02L24.0785 14.7174L24.0755 14.727L25.0316 15.02ZM25.0316 20.98L24.0742 21.2687L24.077 21.2779L24.0799 21.287L25.0316 20.98ZM26.1516 22.9L25.465 23.6271L25.475 23.6363L26.1516 22.9ZM27.9516 24.2C27.0464 24.2 26.3568 23.9492 25.8145 23.494L24.5288 25.026C25.4798 25.8242 26.6436 26.2 27.9516 26.2V24.2ZM25.8213 23.4998C25.2461 23.0082 24.7744 22.3079 24.4344 21.3466L22.5489 22.0134C22.9822 23.2388 23.6305 24.2584 24.522 25.0202L25.8213 23.4998ZM24.438 21.3569C24.1058 20.3841 23.9316 19.2691 23.9316 18H21.9316C21.9316 19.4509 22.1308 20.7892 22.5453 22.0031L24.438 21.3569ZM23.9316 18C23.9316 16.7016 24.1066 15.5819 24.4368 14.6267L22.5465 13.9733C22.13 15.1781 21.9316 16.5251 21.9316 18H23.9316ZM24.4331 14.6371C24.7722 13.69 25.2435 12.994 25.8213 12.5002L24.522 10.9798C23.6331 11.7394 22.9844 12.75 22.5502 13.9629L24.4331 14.6371ZM25.8145 12.506C26.3568 12.0508 27.0464 11.8 27.9516 11.8V9.8C26.6436 9.8 25.4798 10.1758 24.5288 10.974L25.8145 12.506ZM27.9516 11.8C28.8573 11.8 29.5361 12.0509 30.062 12.5002L31.3613 10.9798C30.4205 10.1758 29.2593 9.8 27.9516 9.8V11.8ZM30.0688 12.506C30.6545 12.9975 31.122 13.688 31.4465 14.6267L33.3368 13.9733C32.9146 12.752 32.2621 11.7358 31.3545 10.974L30.0688 12.506ZM31.4465 14.6267C31.7767 15.5819 31.9516 16.7016 31.9516 18H33.9516C33.9516 16.5251 33.7532 15.1781 33.3368 13.9733L31.4465 14.6267ZM31.9516 18C31.9516 19.2691 31.7774 20.3841 31.4453 21.3569L33.338 22.0031C33.7525 20.7892 33.9516 19.4509 33.9516 18H31.9516ZM31.4453 21.3569C31.1199 22.3099 30.6518 23.0047 30.0688 23.494L31.3545 25.026C32.2648 24.262 32.9168 23.2368 33.338 22.0031L31.4453 21.3569ZM30.062 23.4998C29.5361 23.9491 28.8573 24.2 27.9516 24.2V26.2C29.2593 26.2 30.4205 25.8242 31.3613 25.0202L30.062 23.4998ZM27.9516 24.58C28.8939 24.58 29.7388 24.2687 30.4183 23.627L29.045 22.173C28.7645 22.4379 28.4227 22.58 27.9516 22.58V24.58ZM30.4083 23.6363C31.0653 23.0326 31.5171 22.2213 31.8078 21.273L29.8955 20.687C29.6795 21.392 29.3846 21.8608 29.055 22.1637L30.4083 23.6363ZM31.809 21.2687C32.0978 20.3115 32.2316 19.2163 32.2316 18H30.2316C30.2316 19.0771 30.1122 19.9685 29.8942 20.6913L31.809 21.2687ZM32.2316 18C32.2316 16.7723 32.0982 15.6747 31.8078 14.727L29.8955 15.313C30.1118 16.0186 30.2316 16.9077 30.2316 18H32.2316ZM31.809 14.7313C31.5194 13.771 31.0662 12.9504 30.3973 12.3537L29.066 13.8463C29.3837 14.1296 29.6772 14.589 29.8942 15.3087L31.809 14.7313ZM30.4183 12.373C29.7388 11.7313 28.8939 11.42 27.9516 11.42V13.42C28.4227 13.42 28.7645 13.5621 29.045 13.827L30.4183 12.373ZM27.9516 11.42C27.0094 11.42 26.1637 11.7308 25.475 12.3637L26.8283 13.8363C27.1263 13.5625 27.4805 13.42 27.9516 13.42V11.42ZM25.4759 12.3628C24.8294 12.9555 24.3801 13.7674 24.0785 14.7174L25.9848 15.3226C26.2165 14.5926 26.5139 14.1245 26.8274 13.8372L25.4759 12.3628ZM24.0755 14.727C23.7851 15.6747 23.6516 16.7723 23.6516 18H25.6516C25.6516 16.9077 25.7715 16.0186 25.9878 15.313L24.0755 14.727ZM23.6516 18C23.6516 19.2163 23.7855 20.3115 24.0742 21.2687L25.989 20.6913C25.7711 19.9685 25.6516 19.0771 25.6516 18H23.6516ZM24.0799 21.287C24.3825 22.2249 24.8302 23.0274 25.465 23.627L26.8383 22.173C26.5131 21.8659 26.2141 21.3885 25.9833 20.673L24.0799 21.287ZM25.475 23.6363C26.1637 24.2691 27.0094 24.58 27.9516 24.58V22.58C27.4805 22.58 27.1263 22.4375 26.8283 22.1637L25.475 23.6363Z" fill="black"/>
<path d="M7.61664 11C8.58997 11 9.44331 11.1867 10.1766 11.56C10.9233 11.92 11.5433 12.4267 12.0366 13.08C12.53 13.7333 12.8966 14.4867 13.1366 15.34C13.39 16.18 13.5166 17.0667 13.5166 18C13.5166 19.28 13.2966 20.4533 12.8566 21.52C12.4166 22.5733 11.7633 23.42 10.8966 24.06C10.03 24.6867 8.93664 25 7.61664 25H2.61664C2.38997 25 2.19664 24.92 2.03664 24.76C1.88997 24.6 1.81664 24.4067 1.81664 24.18V11.8C1.81664 11.5733 1.88997 11.3867 2.03664 11.24C2.19664 11.08 2.38997 11 2.61664 11H7.61664ZM7.41664 23.44C8.44331 23.44 9.27664 23.1933 9.91664 22.7C10.57 22.2067 11.0433 21.5467 11.3366 20.72C11.6433 19.8933 11.7966 18.9867 11.7966 18C11.7966 17.28 11.71 16.5933 11.5366 15.94C11.3766 15.2733 11.1166 14.6867 10.7566 14.18C10.41 13.6733 9.95664 13.2733 9.39664 12.98C8.84997 12.6867 8.18997 12.54 7.41664 12.54H3.31664L3.47664 12.38V23.64L3.35664 23.44H7.41664ZM19.0121 25C18.7721 25 18.5721 24.92 18.4121 24.76C18.2521 24.6 18.1721 24.4067 18.1721 24.18V12.8L18.4121 13.08L16.1521 14.64C16.0188 14.7333 15.8654 14.78 15.6921 14.78C15.4654 14.78 15.2721 14.7 15.1121 14.54C14.9521 14.3667 14.8721 14.1733 14.8721 13.96C14.8721 13.6667 15.0121 13.4333 15.2921 13.26L18.4721 11.16C18.5788 11.0933 18.6854 11.0467 18.7921 11.02C18.8988 10.9933 19.0054 10.9867 19.1121 11C19.3521 11 19.5388 11.08 19.6721 11.24C19.8188 11.3867 19.8921 11.5733 19.8921 11.8V24.18C19.8921 24.4067 19.8054 24.6 19.6321 24.76C19.4721 24.92 19.2654 25 19.0121 25ZM27.9516 25.2C26.845 25.2 25.9183 24.8867 25.1716 24.26C24.4383 23.6333 23.8783 22.7733 23.4916 21.68C23.1183 20.5867 22.9316 19.36 22.9316 18C22.9316 16.6133 23.1183 15.38 23.4916 14.3C23.8783 13.22 24.4383 12.3667 25.1716 11.74C25.9183 11.1133 26.845 10.8 27.9516 10.8C29.0583 10.8 29.9783 11.1133 30.7116 11.74C31.4583 12.3667 32.0183 13.22 32.3916 14.3C32.765 15.38 32.9516 16.6133 32.9516 18C32.9516 19.36 32.765 20.5867 32.3916 21.68C32.0183 22.7733 31.4583 23.6333 30.7116 24.26C29.9783 24.8867 29.0583 25.2 27.9516 25.2ZM27.9516 23.58C28.6583 23.58 29.2516 23.3533 29.7316 22.9C30.225 22.4467 30.5983 21.8067 30.8516 20.98C31.105 20.14 31.2316 19.1467 31.2316 18C31.2316 16.84 31.105 15.8467 30.8516 15.02C30.5983 14.18 30.225 13.54 29.7316 13.1C29.2516 12.6467 28.6583 12.42 27.9516 12.42C27.245 12.42 26.645 12.6467 26.1516 13.1C25.6716 13.54 25.2983 14.18 25.0316 15.02C24.7783 15.8467 24.6516 16.84 24.6516 18C24.6516 19.1467 24.7783 20.14 25.0316 20.98C25.2983 21.8067 25.6716 22.4467 26.1516 22.9C26.645 23.3533 27.245 23.58 27.9516 23.58Z" fill="white"/>
</svg>
