<svg width="35" height="37" viewBox="0 0 35 37" fill="none" xmlns="http://www.w3.org/2000/svg">
<path d="M17.5 1.14822L30.1261 27.25H4.87389L17.5 1.14822Z" stroke="#AA7019"/>
<path d="M17.5 33.4527L30.3039 27.75L4.69612 27.75L17.5 33.4527Z" stroke="#AA7019"/>
<line x1="17.5" y1="2" x2="17.5" y2="33" stroke="#AA7019"/>
<path d="M10.5966 11.56L10.1429 12.4512L10.1525 12.4561L10.1623 12.4608L10.5966 11.56ZM12.4566 13.08L11.6585 13.6826L11.6585 13.6826L12.4566 13.08ZM13.5566 15.34L12.5939 15.6107L12.5965 15.6198L12.5992 15.6287L13.5566 15.34ZM13.2766 21.52L14.1993 21.9054L14.201 21.9013L13.2766 21.52ZM11.3166 24.06L11.9025 24.8704L11.9106 24.8644L11.3166 24.06ZM2.45656 24.76L1.71941 25.4357L1.73409 25.4517L1.74946 25.4671L2.45656 24.76ZM2.45656 11.24L3.16367 11.9471L3.16367 11.9471L2.45656 11.24ZM10.3366 22.7L9.73393 21.9019L9.72606 21.908L10.3366 22.7ZM11.7566 20.72L10.819 20.3722L10.8165 20.3789L10.8141 20.3856L11.7566 20.72ZM11.9566 15.94L10.9842 16.1734L10.987 16.1849L10.99 16.1964L11.9566 15.94ZM11.1766 14.18L10.3513 14.7447L10.3563 14.752L10.3614 14.7592L11.1766 14.18ZM9.81656 12.98L9.34372 13.8612L9.35256 13.8658L9.81656 12.98ZM3.73656 12.54L3.02946 11.8329L1.32235 13.54H3.73656V12.54ZM3.89656 12.38H4.89656V9.96578L3.18946 11.6729L3.89656 12.38ZM3.89656 23.64L3.03907 24.1545L4.89656 27.2503V23.64H3.89656ZM3.77656 23.44V22.44H2.01037L2.91907 23.9545L3.77656 23.44ZM8.03656 12C8.8809 12 9.5736 12.1613 10.1429 12.4512L11.0502 10.6688C10.1529 10.212 9.13889 10 8.03656 10V12ZM10.1623 12.4608C10.7676 12.7526 11.2622 13.1578 11.6585 13.6826L13.2546 12.4774C12.6642 11.6955 11.9189 11.0874 11.0309 10.6592L10.1623 12.4608ZM11.6585 13.6826C12.0708 14.2286 12.3848 14.8673 12.5939 15.6107L14.5192 15.0693C14.2483 14.106 13.829 13.2381 13.2546 12.4774L11.6585 13.6826ZM12.5992 15.6287C12.8225 16.3693 12.9366 17.1582 12.9366 18H14.9366C14.9366 16.9751 14.7973 15.9907 14.514 15.0513L12.5992 15.6287ZM12.9366 18C12.9366 19.1635 12.7371 20.2055 12.3521 21.1387L14.201 21.9013C14.6961 20.7012 14.9366 19.3965 14.9366 18H12.9366ZM12.3538 21.1346C11.9792 22.0314 11.435 22.7294 10.7225 23.2556L11.9106 24.8644C12.9315 24.1106 13.6939 23.1152 14.1993 21.9054L12.3538 21.1346ZM10.7306 23.2496C10.0709 23.7266 9.19618 24 8.03656 24V26C9.51695 26 10.8288 25.6467 11.9025 24.8704L10.7306 23.2496ZM8.03656 24H3.03656V26H8.03656V24ZM3.03656 24C3.04341 24 3.06956 24.0018 3.10391 24.016C3.1383 24.0302 3.15836 24.0476 3.16367 24.0529L1.74946 25.4671C2.09736 25.815 2.5452 26 3.03656 26V24ZM3.19372 24.0843C3.20177 24.0931 3.21602 24.1126 3.22656 24.1403C3.23682 24.1674 3.23656 24.1838 3.23656 24.18H1.23656C1.23656 24.6447 1.39562 25.0825 1.71941 25.4357L3.19372 24.0843ZM3.23656 24.18V11.8H1.23656V24.18H3.23656ZM3.23656 11.8C3.23656 11.7956 3.23697 11.8183 3.22231 11.8557C3.20697 11.8947 3.18416 11.9266 3.16367 11.9471L1.74946 10.5329C1.39693 10.8854 1.23656 11.3352 1.23656 11.8H3.23656ZM3.16367 11.9471C3.15836 11.9524 3.1383 11.9698 3.10392 11.984C3.06957 11.9982 3.04341 12 3.03656 12V10C2.5452 10 2.09736 10.185 1.74946 10.5329L3.16367 11.9471ZM3.03656 12H8.03656V10H3.03656V12ZM7.83656 24.44C9.02359 24.44 10.0896 24.153 10.9471 23.492L9.72606 21.908C9.30355 22.2337 8.70287 22.44 7.83656 22.44V24.44ZM10.9392 23.498C11.76 22.8782 12.3451 22.0517 12.699 21.0544L10.8141 20.3856C10.5814 21.0416 10.2198 21.5351 9.73396 21.902L10.9392 23.498ZM12.6941 21.0678C13.0467 20.1174 13.2166 19.0913 13.2166 18H11.2166C11.2166 18.882 11.0798 19.6693 10.819 20.3722L12.6941 21.0678ZM13.2166 18C13.2166 17.1991 13.1201 16.4258 12.9231 15.6836L10.99 16.1964C11.1397 16.7608 11.2166 17.3609 11.2166 18H13.2166ZM12.9289 15.7066C12.7422 14.9285 12.433 14.2219 11.9917 13.6008L10.3614 14.7592C10.6401 15.1515 10.8509 15.6181 10.9842 16.1734L12.9289 15.7066ZM12.0019 13.6153C11.56 12.9696 10.981 12.461 10.2806 12.0942L9.35256 13.8658C9.77215 14.0856 10.0998 14.3771 10.3513 14.7447L12.0019 13.6153ZM10.2894 12.0988C9.56576 11.7106 8.73491 11.54 7.83656 11.54V13.54C8.48488 13.54 8.97403 13.6628 9.34374 13.8612L10.2894 12.0988ZM7.83656 11.54H3.73656V13.54H7.83656V11.54ZM4.44367 13.2471L4.60367 13.0871L3.18946 11.6729L3.02946 11.8329L4.44367 13.2471ZM2.89656 12.38V23.64H4.89656V12.38H2.89656ZM4.75406 23.1255L4.63406 22.9255L2.91907 23.9545L3.03907 24.1545L4.75406 23.1255ZM3.77656 24.44H7.83656V22.44H3.77656V24.44ZM18.832 24.76L18.1249 25.4671L18.1249 25.4671L18.832 24.76ZM18.592 12.8L19.3513 12.1492L17.592 10.0967V12.8H18.592ZM18.832 13.08L19.4001 13.903L20.3139 13.2722L19.5913 12.4292L18.832 13.08ZM16.572 14.64L16.0039 13.817L15.9986 13.8208L16.572 14.64ZM15.532 14.54L14.7972 15.2183L14.8108 15.233L14.8249 15.2471L15.532 14.54ZM15.712 13.26L16.2384 14.1103L16.2509 14.1025L16.2631 14.0945L15.712 13.26ZM18.892 11.16L18.362 10.312L18.3514 10.3186L18.341 10.3255L18.892 11.16ZM19.212 11.02L18.9695 10.0499L18.9695 10.0499L19.212 11.02ZM19.532 11L19.408 11.9923L19.4698 12H19.532V11ZM20.092 11.24L19.3238 11.8802L19.3528 11.915L19.3849 11.9471L20.092 11.24ZM20.052 24.76L19.3738 24.0252L19.3591 24.0388L19.3449 24.0529L20.052 24.76ZM19.432 24C19.4247 24 19.4425 23.9992 19.4734 24.0115C19.5055 24.0243 19.5283 24.0421 19.5391 24.0529L18.1249 25.4671C18.4847 25.8269 18.9447 26 19.432 26V24ZM19.5391 24.0529C19.5444 24.0582 19.5618 24.0783 19.576 24.1126C19.5903 24.147 19.592 24.1732 19.592 24.18H17.592C17.592 24.6714 17.777 25.1192 18.1249 25.4671L19.5391 24.0529ZM19.592 24.18V12.8H17.592V24.18H19.592ZM17.8328 13.4508L18.0728 13.7308L19.5913 12.4292L19.3513 12.1492L17.8328 13.4508ZM18.264 12.257L16.004 13.817L17.1401 15.463L19.4001 13.903L18.264 12.257ZM15.9986 13.8208C16.0168 13.808 16.0402 13.7961 16.0659 13.7883C16.091 13.7807 16.108 13.78 16.112 13.78V15.78C16.4764 15.78 16.8329 15.6781 17.1455 15.4592L15.9986 13.8208ZM16.112 13.78C16.1189 13.78 16.145 13.7818 16.1794 13.796C16.2138 13.8102 16.2338 13.8276 16.2391 13.8329L14.8249 15.2471C15.1728 15.595 15.6207 15.78 16.112 15.78V13.78ZM16.2668 13.8617C16.2568 13.8508 16.2656 13.8573 16.276 13.8826C16.2872 13.9096 16.292 13.9381 16.292 13.96H14.292C14.292 14.4521 14.4863 14.8814 14.7972 15.2183L16.2668 13.8617ZM16.292 13.96C16.292 13.9668 16.2911 13.984 16.2847 14.0082C16.2782 14.0327 16.2678 14.0574 16.2545 14.0795C16.227 14.1254 16.2058 14.1305 16.2384 14.1103L15.1857 12.4097C14.6542 12.7388 14.292 13.2727 14.292 13.96H16.292ZM16.2631 14.0945L19.4431 11.9945L18.341 10.3255L15.161 12.4255L16.2631 14.0945ZM19.422 12.008C19.4524 11.989 19.463 11.988 19.4546 11.9901L18.9695 10.0499C18.7478 10.1053 18.545 10.1977 18.362 10.312L19.422 12.008ZM19.4546 11.9901C19.4505 11.9912 19.4436 11.9925 19.4344 11.9931C19.4252 11.9936 19.4161 11.9933 19.408 11.9923L19.6561 10.0077C19.4241 9.97872 19.1932 9.99394 18.9695 10.0499L19.4546 11.9901ZM19.532 12C19.5408 12 19.5098 12.0013 19.4581 11.9791C19.4026 11.9554 19.3555 11.9182 19.3238 11.8802L20.8603 10.5998C20.5068 10.1757 20.0183 10 19.532 10V12ZM19.3849 11.9471C19.3644 11.9266 19.3416 11.8947 19.3263 11.8557C19.3116 11.8183 19.312 11.7956 19.312 11.8H21.312C21.312 11.3352 21.1517 10.8854 20.7991 10.5329L19.3849 11.9471ZM19.312 11.8V24.18H21.312V11.8H19.312ZM19.312 24.18C19.312 24.1623 19.3162 24.1268 19.3345 24.0859C19.3429 24.0672 19.3522 24.0521 19.3603 24.0411C19.3683 24.0302 19.3738 24.0252 19.3738 24.0252L20.7303 25.4948C21.0993 25.1542 21.312 24.6983 21.312 24.18H19.312ZM19.3449 24.0529C19.3519 24.0459 19.3622 24.0371 19.3756 24.0283C19.3891 24.0194 19.403 24.0125 19.416 24.0074C19.4431 23.997 19.4527 24 19.432 24V26C19.9159 26 20.3884 25.8378 20.7591 25.4671L19.3449 24.0529ZM32.2716 23.72L31.5645 24.4271L32.2716 23.72ZM32.2716 24.8L32.9442 25.5399L32.9618 25.5239L32.9787 25.5071L32.2716 24.8ZM23.8716 24.8L23.1645 25.5071L23.1965 25.5392L23.2314 25.5682L23.8716 24.8ZM23.8916 23.64L24.6264 24.3183L24.6293 24.315L23.8916 23.64ZM28.4116 18.7L27.6778 18.0206L27.6738 18.025L28.4116 18.7ZM29.9116 16.68L29.0322 16.2037L29.0287 16.2104L29.9116 16.68ZM29.6916 13.04L28.9748 13.7374L28.9844 13.7472L28.9942 13.7567L29.6916 13.04ZM26.6716 12.54L27.0489 13.4661L27.0634 13.4602L27.0777 13.4538L26.6716 12.54ZM25.6916 13.16L26.3452 13.9168L26.3548 13.9085L26.3642 13.8999L25.6916 13.16ZM24.9716 14.02L25.8232 14.5441L25.8294 14.5341L25.8353 14.5239L24.9716 14.02ZM24.6316 14.36L24.9827 15.2963L25.0105 15.2859L25.0377 15.2738L24.6316 14.36ZM23.7516 14.22L23.0758 14.9572L23.0932 14.9731L23.1114 14.9882L23.7516 14.22ZM23.6316 13.32L24.4636 13.8747L24.4768 13.8549L24.4891 13.8345L23.6316 13.32ZM23.9516 12.88L24.7198 13.5202L24.7416 13.4941L24.7615 13.4665L23.9516 12.88ZM24.9916 11.84L25.5874 12.6431L25.5916 12.64L24.9916 11.84ZM26.3716 11.08L26.0258 10.1416L26.0177 10.1447L26.3716 11.08ZM30.0716 11.3L29.6019 12.1829L29.6096 12.1869L30.0716 11.3ZM31.5516 12.72L30.681 13.2121L30.681 13.2121L31.5516 12.72ZM31.4316 17.22L30.5371 16.7728L30.5371 16.7728L31.4316 17.22ZM29.5516 19.82L28.8227 19.1353L28.8158 19.1427L28.809 19.1502L29.5516 19.82ZM26.0516 23.7L25.3445 24.4071L26.0889 25.1516L26.7941 24.3698L26.0516 23.7ZM25.8516 23.5V22.5H23.4374L25.1445 24.2071L25.8516 23.5ZM31.7316 24.5C31.7215 24.5 31.6903 24.4978 31.6493 24.4811C31.6077 24.4642 31.579 24.4416 31.5645 24.4271L32.9787 23.0129C32.6386 22.6728 32.2016 22.5 31.7316 22.5V24.5ZM31.5645 24.4271C31.55 24.4126 31.5274 24.3839 31.5105 24.3423C31.4938 24.3013 31.4916 24.27 31.4916 24.26H33.4916C33.4916 23.7899 33.3188 23.353 32.9787 23.0129L31.5645 24.4271ZM31.4916 24.26C31.4916 24.25 31.4938 24.2187 31.5105 24.1777C31.5274 24.1361 31.55 24.1074 31.5645 24.0929L32.9787 25.5071C33.3188 25.167 33.4916 24.7301 33.4916 24.26H31.4916ZM31.5989 24.0601C31.6172 24.0434 31.6452 24.0249 31.6792 24.0123C31.7121 24.0001 31.7328 24 31.7316 24V26C32.173 26 32.5988 25.854 32.9442 25.5399L31.5989 24.0601ZM31.7316 24H24.4716V26H31.7316V24ZM24.4716 24C24.4444 24 24.4428 23.9963 24.4578 24.0013C24.465 24.0037 24.4744 24.0076 24.4847 24.0133C24.495 24.0191 24.5042 24.0255 24.5117 24.0318L23.2314 25.5682C23.598 25.8737 24.0352 26 24.4716 26V24ZM24.5787 24.0929C24.6051 24.1193 24.6279 24.1543 24.6416 24.1903C24.6542 24.2236 24.6516 24.238 24.6516 24.22H22.6516C22.6516 24.6801 22.8006 25.1433 23.1645 25.5071L24.5787 24.0929ZM24.6516 24.22C24.6516 24.2419 24.6467 24.2704 24.6356 24.2974C24.6251 24.3227 24.6163 24.3292 24.6264 24.3183L23.1568 22.9617C22.8458 23.2986 22.6516 23.7279 22.6516 24.22H24.6516ZM24.6293 24.315L29.1493 19.375L27.6738 18.025L23.1538 22.965L24.6293 24.315ZM29.1453 19.3794C29.85 18.6184 30.4085 17.8751 30.7944 17.1496L29.0287 16.2104C28.7479 16.7383 28.3065 17.3416 27.6778 18.0206L29.1453 19.3794ZM30.7909 17.1563C31.1818 16.4345 31.4316 15.7001 31.4316 14.98H29.4316C29.4316 15.2466 29.3346 15.6455 29.0323 16.2037L30.7909 17.1563ZM31.4316 14.98C31.4316 13.9497 31.1107 13.0255 30.3889 12.3233L28.9942 13.7567C29.2591 14.0145 29.4316 14.3837 29.4316 14.98H31.4316ZM30.4083 12.3426C29.706 11.6209 28.7819 11.3 27.7516 11.3V13.3C28.3479 13.3 28.7171 13.4724 28.9748 13.7374L30.4083 12.3426ZM27.7516 11.3C27.2389 11.3 26.7411 11.4148 26.2654 11.6262L27.0777 13.4538C27.322 13.3452 27.5442 13.3 27.7516 13.3V11.3ZM26.2943 11.6139C25.8235 11.8057 25.3973 12.0761 25.0189 12.4201L26.3642 13.8999C26.5725 13.7106 26.7996 13.5676 27.0489 13.4661L26.2943 11.6139ZM25.0379 12.4032C24.665 12.7253 24.3526 13.0964 24.1078 13.5161L25.8353 14.5239C25.9639 14.3036 26.1315 14.1014 26.3452 13.9168L25.0379 12.4032ZM24.1199 13.4959C24.097 13.533 24.0885 13.5388 24.0995 13.5279C24.111 13.5163 24.1516 13.479 24.2254 13.4462L25.0377 15.2738C25.418 15.1048 25.6648 14.8015 25.8232 14.5441L24.1199 13.4959ZM24.2804 13.4237C24.2852 13.4219 24.2896 13.4208 24.2928 13.4202C24.2959 13.4197 24.2958 13.42 24.2916 13.42V15.42C24.525 15.42 24.7578 15.3806 24.9827 15.2963L24.2804 13.4237ZM24.2916 13.42C24.3051 13.42 24.3281 13.4227 24.3539 13.4323C24.3791 13.4416 24.3919 13.4519 24.3917 13.4518L23.1114 14.9882C23.443 15.2646 23.8473 15.42 24.2916 15.42V13.42ZM24.4273 13.4828C24.4252 13.4809 24.4492 13.5025 24.4731 13.5523C24.4986 13.6053 24.5116 13.665 24.5116 13.72H22.5116C22.5116 14.2334 22.7461 14.6549 23.0758 14.9572L24.4273 13.4828ZM24.5116 13.72C24.5116 13.7388 24.5088 13.7659 24.4994 13.7973C24.4899 13.8289 24.4765 13.8553 24.4636 13.8747L22.7995 12.7653C22.608 13.0525 22.5116 13.3795 22.5116 13.72H24.5116ZM24.4891 13.8345C24.5354 13.7572 24.6091 13.653 24.7198 13.5202L23.1833 12.2398C23.0274 12.427 22.8877 12.6161 22.7741 12.8055L24.4891 13.8345ZM24.7615 13.4665C24.9771 13.1688 25.2497 12.8937 25.5874 12.6431L24.3957 11.0369C23.9068 11.3997 23.486 11.8179 23.1416 12.2935L24.7615 13.4665ZM25.5916 12.64C25.9438 12.3758 26.3211 12.1683 26.7255 12.0153L26.0177 10.1447C25.4354 10.365 24.8926 10.6642 24.3916 11.04L25.5916 12.64ZM26.7173 12.0183C27.127 11.8674 27.5033 11.8 27.8516 11.8V9.8C27.2398 9.8 26.6295 9.91926 26.0259 10.1417L26.7173 12.0183ZM27.8516 11.8C28.574 11.8 29.1464 11.9405 29.6019 12.1829L30.5412 10.4171C29.7434 9.99279 28.8358 9.8 27.8516 9.8V11.8ZM29.6096 12.1869C30.0825 12.4332 30.4319 12.7714 30.681 13.2121L32.4221 12.2279C31.9779 11.442 31.3406 10.8335 30.5335 10.4131L29.6096 12.1869ZM30.681 13.2121C30.9292 13.6511 31.0716 14.1957 31.0716 14.88H33.0716C33.0716 13.911 32.8673 13.0156 32.4221 12.2279L30.681 13.2121ZM31.0716 14.88C31.0716 15.3869 30.9175 16.012 30.5371 16.7728L32.326 17.6672C32.7989 16.7213 33.0716 15.7865 33.0716 14.88H31.0716ZM30.5371 16.7728C30.1636 17.5199 29.5997 18.3082 28.8227 19.1353L30.2804 20.5047C31.1568 19.5718 31.8462 18.6268 32.326 17.6672L30.5371 16.7728ZM28.809 19.1502L25.309 23.0302L26.7941 24.3698L30.2941 20.4898L28.809 19.1502ZM26.7587 22.9929L26.5587 22.7929L25.1445 24.2071L25.3445 24.4071L26.7587 22.9929ZM25.8516 24.5H31.7316V22.5H25.8516V24.5Z" fill="black"/>
<path d="M8.03656 11C9.0099 11 9.86323 11.1867 10.5966 11.56C11.3432 11.92 11.9632 12.4267 12.4566 13.08C12.9499 13.7333 13.3166 14.4867 13.5566 15.34C13.8099 16.18 13.9366 17.0667 13.9366 18C13.9366 19.28 13.7166 20.4533 13.2766 21.52C12.8366 22.5733 12.1832 23.42 11.3166 24.06C10.4499 24.6867 9.35656 25 8.03656 25H3.03656C2.8099 25 2.61656 24.92 2.45656 24.76C2.3099 24.6 2.23656 24.4067 2.23656 24.18V11.8C2.23656 11.5733 2.3099 11.3867 2.45656 11.24C2.61656 11.08 2.8099 11 3.03656 11H8.03656ZM7.83656 23.44C8.86323 23.44 9.69656 23.1933 10.3366 22.7C10.9899 22.2067 11.4632 21.5467 11.7566 20.72C12.0632 19.8933 12.2166 18.9867 12.2166 18C12.2166 17.28 12.1299 16.5933 11.9566 15.94C11.7966 15.2733 11.5366 14.6867 11.1766 14.18C10.8299 13.6733 10.3766 13.2733 9.81656 12.98C9.2699 12.6867 8.6099 12.54 7.83656 12.54H3.73656L3.89656 12.38V23.64L3.77656 23.44H7.83656ZM19.432 25C19.192 25 18.992 24.92 18.832 24.76C18.672 24.6 18.592 24.4067 18.592 24.18V12.8L18.832 13.08L16.572 14.64C16.4387 14.7333 16.2854 14.78 16.112 14.78C15.8854 14.78 15.692 14.7 15.532 14.54C15.372 14.3667 15.292 14.1733 15.292 13.96C15.292 13.6667 15.432 13.4333 15.712 13.26L18.892 11.16C18.9987 11.0933 19.1054 11.0467 19.212 11.02C19.3187 10.9933 19.4254 10.9867 19.532 11C19.772 11 19.9587 11.08 20.092 11.24C20.2387 11.3867 20.312 11.5733 20.312 11.8V24.18C20.312 24.4067 20.2254 24.6 20.052 24.76C19.892 24.92 19.6854 25 19.432 25ZM31.7316 23.5C31.9449 23.5 32.1249 23.5733 32.2716 23.72C32.4182 23.8667 32.4916 24.0467 32.4916 24.26C32.4916 24.4733 32.4182 24.6533 32.2716 24.8C32.1249 24.9333 31.9449 25 31.7316 25H24.4716C24.2316 25 24.0316 24.9333 23.8716 24.8C23.7249 24.6533 23.6516 24.46 23.6516 24.22C23.6516 24.0067 23.7316 23.8133 23.8916 23.64L28.4116 18.7C29.0782 17.98 29.5782 17.3067 29.9116 16.68C30.2582 16.04 30.4316 15.4733 30.4316 14.98C30.4316 14.1667 30.1849 13.52 29.6916 13.04C29.2116 12.5467 28.5649 12.3 27.7516 12.3C27.3916 12.3 27.0316 12.38 26.6716 12.54C26.3116 12.6867 25.9849 12.8933 25.6916 13.16C25.3982 13.4133 25.1582 13.7 24.9716 14.02C24.8649 14.1933 24.7516 14.3067 24.6316 14.36C24.5249 14.4 24.4116 14.42 24.2916 14.42C24.0916 14.42 23.9116 14.3533 23.7516 14.22C23.5916 14.0733 23.5116 13.9067 23.5116 13.72C23.5116 13.5733 23.5516 13.44 23.6316 13.32C23.7116 13.1867 23.8182 13.04 23.9516 12.88C24.2316 12.4933 24.5782 12.1467 24.9916 11.84C25.4182 11.52 25.8782 11.2667 26.3716 11.08C26.8782 10.8933 27.3716 10.8 27.8516 10.8C28.7049 10.8 29.4449 10.9667 30.0716 11.3C30.7116 11.6333 31.2049 12.1067 31.5516 12.72C31.8982 13.3333 32.0716 14.0533 32.0716 14.88C32.0716 15.5867 31.8582 16.3667 31.4316 17.22C31.0049 18.0733 30.3782 18.94 29.5516 19.82L26.0516 23.7L25.8516 23.5H31.7316Z" fill="white"/>

</svg>
