<svg width="38" height="37" viewBox="0 0 38 37" fill="none" xmlns="http://www.w3.org/2000/svg">
<path d="M19.5 1.14822L32.1261 27.25H6.87389L19.5 1.14822Z" stroke="#FF2020"/>
<path d="M19.5 33.4527L32.3039 27.75L6.69612 27.75L19.5 33.4527Z" stroke="#FF2020"/>
<line x1="19.5" y1="2" x2="19.5" y2="33" stroke="#FF2020"/>
<path d="M10.3505 11.56L9.89679 12.4512L9.90643 12.4561L9.91617 12.4608L10.3505 11.56ZM12.2105 13.08L11.4124 13.6826L11.4124 13.6826L12.2105 13.08ZM13.3105 15.34L12.3478 15.6107L12.3504 15.6198L12.3531 15.6287L13.3105 15.34ZM13.0305 21.52L13.9532 21.9054L13.9549 21.9013L13.0305 21.52ZM11.0705 24.06L11.6564 24.8704L11.6645 24.8644L11.0705 24.06ZM2.21047 24.76L1.47331 25.4357L1.488 25.4517L1.50336 25.4671L2.21047 24.76ZM2.21047 11.24L2.91757 11.9471L2.91758 11.9471L2.21047 11.24ZM10.0905 22.7L9.48784 21.9019L9.47996 21.908L10.0905 22.7ZM11.5105 20.72L10.5729 20.3722L10.5704 20.3789L10.568 20.3856L11.5105 20.72ZM11.7105 15.94L10.7381 16.1734L10.7409 16.1849L10.7439 16.1964L11.7105 15.94ZM10.9305 14.18L10.1052 14.7447L10.1102 14.752L10.1153 14.7592L10.9305 14.18ZM9.57047 12.98L9.09763 13.8612L9.10646 13.8658L9.57047 12.98ZM3.49047 12.54L2.78336 11.8329L1.07626 13.54H3.49047V12.54ZM3.65047 12.38H4.65047V9.96578L2.94336 11.6729L3.65047 12.38ZM3.65047 23.64L2.79298 24.1545L4.65047 27.2503V23.64H3.65047ZM3.53047 23.44V22.44H1.76428L2.67298 23.9545L3.53047 23.44ZM7.79047 12C8.63481 12 9.3275 12.1613 9.89679 12.4512L10.8042 10.6688C9.90677 10.212 8.8928 10 7.79047 10V12ZM9.91617 12.4608C10.5215 12.7526 11.0162 13.1578 11.4124 13.6826L13.0085 12.4774C12.4181 11.6955 11.6728 11.0874 10.7848 10.6592L9.91617 12.4608ZM11.4124 13.6826C11.8247 14.2286 12.1387 14.8673 12.3478 15.6107L14.2731 15.0693C14.0022 14.106 13.5829 13.2381 13.0085 12.4774L11.4124 13.6826ZM12.3531 15.6287C12.5764 16.3693 12.6905 17.1582 12.6905 18H14.6905C14.6905 16.9751 14.5512 15.9907 14.2679 15.0513L12.3531 15.6287ZM12.6905 18C12.6905 19.1635 12.491 20.2055 12.106 21.1387L13.9549 21.9013C14.45 20.7012 14.6905 19.3965 14.6905 18H12.6905ZM12.1077 21.1346C11.7331 22.0314 11.1889 22.7294 10.4764 23.2556L11.6645 24.8644C12.6854 24.1106 13.4478 23.1152 13.9532 21.9054L12.1077 21.1346ZM10.4845 23.2496C9.82485 23.7266 8.95008 24 7.79047 24V26C9.27086 26 10.5828 25.6467 11.6564 24.8704L10.4845 23.2496ZM7.79047 24H2.79047V26H7.79047V24ZM2.79047 24C2.79732 24 2.82347 24.0018 2.85782 24.016C2.89221 24.0302 2.91227 24.0476 2.91758 24.0529L1.50336 25.4671C1.85126 25.815 2.2991 26 2.79047 26V24ZM2.94762 24.0843C2.95568 24.0931 2.96993 24.1126 2.98047 24.1403C2.99073 24.1674 2.99047 24.1838 2.99047 24.18H0.990469C0.990469 24.6447 1.14953 25.0825 1.47331 25.4357L2.94762 24.0843ZM2.99047 24.18V11.8H0.990469V24.18H2.99047ZM2.99047 11.8C2.99047 11.7956 2.99088 11.8183 2.97622 11.8557C2.96088 11.8947 2.93807 11.9266 2.91757 11.9471L1.50336 10.5329C1.15083 10.8854 0.990469 11.3352 0.990469 11.8H2.99047ZM2.91758 11.9471C2.91227 11.9524 2.89221 11.9698 2.85782 11.984C2.82347 11.9982 2.79732 12 2.79047 12V10C2.2991 10 1.85126 10.185 1.50336 10.5329L2.91758 11.9471ZM2.79047 12H7.79047V10H2.79047V12ZM7.59047 24.44C8.7775 24.44 9.84348 24.153 10.701 23.492L9.47996 21.908C9.05746 22.2337 8.45678 22.44 7.59047 22.44V24.44ZM10.6931 23.498C11.5139 22.8782 12.099 22.0517 12.4529 21.0544L10.568 20.3856C10.3353 21.0416 9.97369 21.5351 9.48787 21.902L10.6931 23.498ZM12.448 21.0678C12.8006 20.1174 12.9705 19.0913 12.9705 18H10.9705C10.9705 18.882 10.8337 19.6693 10.5729 20.3722L12.448 21.0678ZM12.9705 18C12.9705 17.1991 12.874 16.4258 12.677 15.6836L10.7439 16.1964C10.8936 16.7608 10.9705 17.3609 10.9705 18H12.9705ZM12.6829 15.7066C12.4961 14.9285 12.1869 14.2219 11.7456 13.6008L10.1153 14.7592C10.394 15.1515 10.6048 15.6181 10.7381 16.1734L12.6829 15.7066ZM11.7558 13.6153C11.3139 12.9696 10.7349 12.461 10.0345 12.0942L9.10646 13.8658C9.52605 14.0856 9.85366 14.3771 10.1052 14.7447L11.7558 13.6153ZM10.0433 12.0988C9.31966 11.7106 8.48882 11.54 7.59047 11.54V13.54C8.23879 13.54 8.72794 13.6628 9.09765 13.8612L10.0433 12.0988ZM7.59047 11.54H3.49047V13.54H7.59047V11.54ZM4.19758 13.2471L4.35758 13.0871L2.94336 11.6729L2.78336 11.8329L4.19758 13.2471ZM2.65047 12.38V23.64H4.65047V12.38H2.65047ZM4.50796 23.1255L4.38796 22.9255L2.67298 23.9545L2.79298 24.1545L4.50796 23.1255ZM3.53047 24.44H7.59047V22.44H3.53047V24.44ZM24.5059 23.72L23.7988 24.4271L24.5059 23.72ZM24.5059 24.8L25.1786 25.5399L25.1962 25.5239L25.213 25.5071L24.5059 24.8ZM16.1059 24.8L15.3988 25.5071L15.4309 25.5392L15.4658 25.5682L16.1059 24.8ZM16.1259 23.64L16.8607 24.3183L16.8637 24.315L16.1259 23.64ZM20.6459 18.7L19.9122 18.0206L19.9082 18.025L20.6459 18.7ZM22.1459 16.68L21.2666 16.2037L21.2631 16.2104L22.1459 16.68ZM21.9259 13.04L21.2092 13.7374L21.2188 13.7472L21.2286 13.7567L21.9259 13.04ZM18.9059 12.54L19.2832 13.4661L19.2978 13.4602L19.3121 13.4538L18.9059 12.54ZM17.9259 13.16L18.5796 13.9168L18.5892 13.9085L18.5986 13.8999L17.9259 13.16ZM17.2059 14.02L18.0576 14.5441L18.0638 14.5341L18.0697 14.5239L17.2059 14.02ZM16.8659 14.36L17.2171 15.2963L17.2449 15.2859L17.2721 15.2738L16.8659 14.36ZM15.9859 14.22L15.3102 14.9572L15.3276 14.9731L15.3458 14.9882L15.9859 14.22ZM15.8659 13.32L16.698 13.8747L16.7112 13.8549L16.7234 13.8345L15.8659 13.32ZM16.1859 12.88L16.9542 13.5202L16.9759 13.4941L16.9959 13.4665L16.1859 12.88ZM17.2259 11.84L17.8218 12.6431L17.8259 12.64L17.2259 11.84ZM18.6059 11.08L18.2602 10.1416L18.252 10.1447L18.6059 11.08ZM22.3059 11.3L21.8363 12.1829L21.844 12.1869L22.3059 11.3ZM23.7859 12.72L22.9154 13.2121L22.9154 13.2121L23.7859 12.72ZM23.6659 17.22L22.7715 16.7728L22.7715 16.7728L23.6659 17.22ZM21.7859 19.82L21.0571 19.1353L21.0502 19.1427L21.0434 19.1502L21.7859 19.82ZM18.2859 23.7L17.5788 24.4071L18.3233 25.1516L19.0285 24.3698L18.2859 23.7ZM18.0859 23.5V22.5H15.6717L17.3788 24.2071L18.0859 23.5ZM23.9659 24.5C23.9559 24.5 23.9246 24.4978 23.8836 24.4811C23.8421 24.4642 23.8133 24.4416 23.7988 24.4271L25.213 23.0129C24.8729 22.6728 24.436 22.5 23.9659 22.5V24.5ZM23.7988 24.4271C23.7843 24.4126 23.7618 24.3839 23.7448 24.3423C23.7281 24.3013 23.7259 24.27 23.7259 24.26H25.7259C25.7259 23.7899 25.5531 23.353 25.213 23.0129L23.7988 24.4271ZM23.7259 24.26C23.7259 24.25 23.7281 24.2187 23.7448 24.1777C23.7618 24.1361 23.7843 24.1074 23.7988 24.0929L25.213 25.5071C25.5531 25.167 25.7259 24.7301 25.7259 24.26H23.7259ZM23.8333 24.0601C23.8516 24.0434 23.8796 24.0249 23.9136 24.0123C23.9465 24.0001 23.9672 24 23.9659 24V26C24.4074 26 24.8331 25.854 25.1786 25.5399L23.8333 24.0601ZM23.9659 24H16.7059V26H23.9659V24ZM16.7059 24C16.6788 24 16.6772 23.9963 16.6922 24.0013C16.6994 24.0037 16.7088 24.0076 16.7191 24.0133C16.7294 24.0191 16.7386 24.0255 16.7461 24.0318L15.4658 25.5682C15.8324 25.8737 16.2696 26 16.7059 26V24ZM16.813 24.0929C16.8394 24.1193 16.8623 24.1543 16.8759 24.1903C16.8886 24.2236 16.8859 24.238 16.8859 24.22H14.8859C14.8859 24.6801 15.035 25.1433 15.3988 25.5071L16.813 24.0929ZM16.8859 24.22C16.8859 24.2419 16.8811 24.2704 16.87 24.2974C16.8595 24.3227 16.8507 24.3292 16.8607 24.3183L15.3911 22.9617C15.0802 23.2986 14.8859 23.7279 14.8859 24.22H16.8859ZM16.8637 24.315L21.3837 19.375L19.9082 18.025L15.3882 22.965L16.8637 24.315ZM21.3797 19.3794C22.0843 18.6184 22.6429 17.8751 23.0288 17.1496L21.2631 16.2104C20.9823 16.7383 20.5409 17.3416 19.9122 18.0206L21.3797 19.3794ZM23.0252 17.1563C23.4162 16.4345 23.6659 15.7001 23.6659 14.98H21.6659C21.6659 15.2466 21.569 15.6455 21.2666 16.2037L23.0252 17.1563ZM23.6659 14.98C23.6659 13.9497 23.345 13.0255 22.6233 12.3233L21.2286 13.7567C21.4935 14.0145 21.6659 14.3837 21.6659 14.98H23.6659ZM22.6427 12.3426C21.9404 11.6209 21.0163 11.3 19.9859 11.3V13.3C20.5823 13.3 20.9515 13.4724 21.2092 13.7374L22.6427 12.3426ZM19.9859 11.3C19.4733 11.3 18.9755 11.4148 18.4998 11.6262L19.3121 13.4538C19.5564 13.3452 19.7786 13.3 19.9859 13.3V11.3ZM18.5286 11.6139C18.0579 11.8057 17.6316 12.0761 17.2533 12.4201L18.5986 13.8999C18.8069 13.7106 19.034 13.5676 19.2832 13.4661L18.5286 11.6139ZM17.2723 12.4032C16.8993 12.7253 16.587 13.0964 16.3422 13.5161L18.0697 14.5239C18.1982 14.3036 18.3659 14.1014 18.5796 13.9168L17.2723 12.4032ZM16.3543 13.4959C16.3314 13.533 16.3229 13.5388 16.3338 13.5279C16.3454 13.5163 16.3859 13.479 16.4598 13.4462L17.2721 15.2738C17.6524 15.1048 17.8992 14.8015 18.0576 14.5441L16.3543 13.4959ZM16.5148 13.4237C16.5196 13.4219 16.524 13.4208 16.5272 13.4202C16.5302 13.4197 16.5302 13.42 16.5259 13.42V15.42C16.7594 15.42 16.9922 15.3806 17.2171 15.2963L16.5148 13.4237ZM16.5259 13.42C16.5394 13.42 16.5625 13.4227 16.5883 13.4323C16.6135 13.4416 16.6263 13.4519 16.6261 13.4518L15.3458 14.9882C15.6774 15.2646 16.0817 15.42 16.5259 15.42V13.42ZM16.6617 13.4828C16.6596 13.4809 16.6836 13.5025 16.7075 13.5523C16.7329 13.6053 16.7459 13.665 16.7459 13.72H14.7459C14.7459 14.2334 14.9805 14.6549 15.3102 14.9572L16.6617 13.4828ZM16.7459 13.72C16.7459 13.7388 16.7432 13.7659 16.7338 13.7973C16.7243 13.8289 16.7109 13.8553 16.698 13.8747L15.0339 12.7653C14.8424 13.0525 14.7459 13.3795 14.7459 13.72H16.7459ZM16.7234 13.8345C16.7698 13.7572 16.8435 13.653 16.9542 13.5202L15.4177 12.2398C15.2617 12.427 15.1221 12.6161 15.0084 12.8055L16.7234 13.8345ZM16.9959 13.4665C17.2115 13.1688 17.4841 12.8937 17.8218 12.6431L16.6301 11.0369C16.1411 11.3997 15.7204 11.8179 15.376 12.2935L16.9959 13.4665ZM17.8259 12.64C18.1782 12.3758 18.5555 12.1683 18.9598 12.0153L18.252 10.1447C17.6697 10.365 17.127 10.6642 16.6259 11.04L17.8259 12.64ZM18.9516 12.0183C19.3613 11.8674 19.7377 11.8 20.0859 11.8V9.8C19.4742 9.8 18.8639 9.91926 18.2602 10.1417L18.9516 12.0183ZM20.0859 11.8C20.8084 11.8 21.3807 11.9405 21.8363 12.1829L22.7756 10.4171C21.9778 9.99279 21.0701 9.8 20.0859 9.8V11.8ZM21.844 12.1869C22.3169 12.4332 22.6663 12.7714 22.9154 13.2121L24.6565 12.2279C24.2123 11.442 23.575 10.8335 22.7679 10.4131L21.844 12.1869ZM22.9154 13.2121C23.1635 13.6511 23.3059 14.1957 23.3059 14.88H25.3059C25.3059 13.911 25.1017 13.0156 24.6565 12.2279L22.9154 13.2121ZM23.3059 14.88C23.3059 15.3869 23.1519 16.012 22.7715 16.7728L24.5604 17.6672C25.0333 16.7213 25.3059 15.7865 25.3059 14.88H23.3059ZM22.7715 16.7728C22.398 17.5199 21.8341 18.3082 21.0571 19.1353L22.5148 20.5047C23.3911 19.5718 24.0806 18.6268 24.5604 17.6672L22.7715 16.7728ZM21.0434 19.1502L17.5434 23.0302L19.0285 24.3698L22.5285 20.4898L21.0434 19.1502ZM18.993 22.9929L18.793 22.7929L17.3788 24.2071L17.5788 24.4071L18.993 22.9929ZM18.0859 24.5H23.9659V22.5H18.0859V24.5ZM28.9978 24.26L28.3481 25.0203L28.3549 25.026L28.9978 24.26ZM27.3178 21.68L26.3714 22.0032L26.375 22.0134L27.3178 21.68ZM27.3178 14.3L26.3763 13.9629L26.3727 13.9733L27.3178 14.3ZM28.9978 11.74L28.3549 10.974L28.3482 10.9798L28.9978 11.74ZM34.5378 11.74L33.8881 12.5003L33.8949 12.506L34.5378 11.74ZM36.2178 14.3L35.2727 14.6267L35.2727 14.6267L36.2178 14.3ZM36.2178 21.68L35.2715 21.3569L35.2715 21.3569L36.2178 21.68ZM34.5378 24.26L33.8949 23.494L33.8882 23.4998L34.5378 24.26ZM33.5578 22.9L32.8811 22.1636L32.8712 22.173L33.5578 22.9ZM34.6778 20.98L35.6339 21.273L35.6352 21.2687L34.6778 20.98ZM34.6778 15.02L33.7204 15.3087L33.7217 15.313L34.6778 15.02ZM33.5578 13.1L32.8712 13.827L32.8816 13.8368L32.8922 13.8463L33.5578 13.1ZM29.9778 13.1L30.6535 13.8372L30.6544 13.8363L29.9778 13.1ZM28.8578 15.02L27.9046 14.7174L27.9017 14.727L28.8578 15.02ZM28.8578 20.98L27.9004 21.2687L27.9032 21.2779L27.9061 21.287L28.8578 20.98ZM29.9778 22.9L29.2911 23.6271L29.3012 23.6363L29.9778 22.9ZM31.7778 24.2C30.8725 24.2 30.183 23.9492 29.6407 23.494L28.3549 25.026C29.306 25.8242 30.4698 26.2 31.7778 26.2V24.2ZM29.6475 23.4998C29.0723 23.0082 28.6006 22.3079 28.2606 21.3466L26.375 22.0134C26.8084 23.2388 27.4567 24.2584 28.3482 25.0202L29.6475 23.4998ZM28.2642 21.3569C27.932 20.3841 27.7578 19.2691 27.7578 18H25.7578C25.7578 19.4509 25.9569 20.7892 26.3715 22.0031L28.2642 21.3569ZM27.7578 18C27.7578 16.7016 27.9327 15.5819 28.2629 14.6267L26.3727 13.9733C25.9562 15.1781 25.7578 16.5251 25.7578 18H27.7578ZM28.2593 14.6371C28.5984 13.69 29.0697 12.994 29.6475 12.5002L28.3482 10.9798C27.4593 11.7394 26.8106 12.75 26.3763 13.9629L28.2593 14.6371ZM29.6407 12.506C30.183 12.0508 30.8725 11.8 31.7778 11.8V9.8C30.4698 9.8 29.306 10.1758 28.3549 10.974L29.6407 12.506ZM31.7778 11.8C32.6835 11.8 33.3623 12.0509 33.8882 12.5002L35.1875 10.9798C34.2466 10.1758 33.0855 9.8 31.7778 9.8V11.8ZM33.8949 12.506C34.4806 12.9975 34.9482 13.688 35.2727 14.6267L37.1629 13.9733C36.7408 12.752 36.0883 11.7358 35.1807 10.974L33.8949 12.506ZM35.2727 14.6267C35.6029 15.5819 35.7778 16.7016 35.7778 18H37.7778C37.7778 16.5251 37.5794 15.1781 37.1629 13.9733L35.2727 14.6267ZM35.7778 18C35.7778 19.2691 35.6036 20.3841 35.2715 21.3569L37.1642 22.0031C37.5787 20.7892 37.7778 19.4509 37.7778 18H35.7778ZM35.2715 21.3569C34.946 22.3099 34.478 23.0047 33.8949 23.494L35.1807 25.026C36.091 24.262 36.7429 23.2368 37.1642 22.0031L35.2715 21.3569ZM33.8882 23.4998C33.3623 23.9491 32.6835 24.2 31.7778 24.2V26.2C33.0855 26.2 34.2466 25.8242 35.1875 25.0202L33.8882 23.4998ZM31.7778 24.58C32.7201 24.58 33.565 24.2687 34.2444 23.627L32.8712 22.173C32.5907 22.4379 32.2489 22.58 31.7778 22.58V24.58ZM34.2344 23.6363C34.8915 23.0326 35.3433 22.2213 35.6339 21.273L33.7217 20.687C33.5056 21.392 33.2108 21.8608 32.8812 22.1637L34.2344 23.6363ZM35.6352 21.2687C35.9239 20.3115 36.0578 19.2163 36.0578 18H34.0578C34.0578 19.0771 33.9384 19.9685 33.7204 20.6913L35.6352 21.2687ZM36.0578 18C36.0578 16.7723 35.9244 15.6747 35.6339 14.727L33.7217 15.313C33.9379 16.0186 34.0578 16.9077 34.0578 18H36.0578ZM35.6352 14.7313C35.3456 13.771 34.8924 12.9504 34.2234 12.3537L32.8922 13.8463C33.2099 14.1296 33.5033 14.589 33.7204 15.3087L35.6352 14.7313ZM34.2444 12.373C33.565 11.7313 32.7201 11.42 31.7778 11.42V13.42C32.2489 13.42 32.5907 13.5621 32.8712 13.827L34.2444 12.373ZM31.7778 11.42C30.8356 11.42 29.9898 11.7308 29.3012 12.3637L30.6544 13.8363C30.9524 13.5625 31.3067 13.42 31.7778 13.42V11.42ZM29.3021 12.3628C28.6556 12.9555 28.2063 13.7674 27.9047 14.7174L29.8109 15.3226C30.0427 14.5926 30.3401 14.1245 30.6535 13.8372L29.3021 12.3628ZM27.9017 14.727C27.6113 15.6747 27.4778 16.7723 27.4778 18H29.4778C29.4778 16.9077 29.5977 16.0186 29.8139 15.313L27.9017 14.727ZM27.4778 18C27.4778 19.2163 27.6117 20.3115 27.9004 21.2687L29.8152 20.6913C29.5973 19.9685 29.4778 19.0771 29.4778 18H27.4778ZM27.9061 21.287C28.2086 22.2249 28.6563 23.0274 29.2912 23.627L30.6644 22.173C30.3393 21.8659 30.0403 21.3885 29.8095 20.673L27.9061 21.287ZM29.3012 23.6363C29.9898 24.2691 30.8356 24.58 31.7778 24.58V22.58C31.3067 22.58 30.9524 22.4375 30.6544 22.1637L29.3012 23.6363Z" fill="black"/>
<path d="M7.79047 11C8.7638 11 9.61714 11.1867 10.3505 11.56C11.0971 11.92 11.7171 12.4267 12.2105 13.08C12.7038 13.7333 13.0705 14.4867 13.3105 15.34C13.5638 16.18 13.6905 17.0667 13.6905 18C13.6905 19.28 13.4705 20.4533 13.0305 21.52C12.5905 22.5733 11.9371 23.42 11.0705 24.06C10.2038 24.6867 9.11047 25 7.79047 25H2.79047C2.5638 25 2.37047 24.92 2.21047 24.76C2.0638 24.6 1.99047 24.4067 1.99047 24.18V11.8C1.99047 11.5733 2.0638 11.3867 2.21047 11.24C2.37047 11.08 2.5638 11 2.79047 11H7.79047ZM7.59047 23.44C8.61714 23.44 9.45047 23.1933 10.0905 22.7C10.7438 22.2067 11.2171 21.5467 11.5105 20.72C11.8171 19.8933 11.9705 18.9867 11.9705 18C11.9705 17.28 11.8838 16.5933 11.7105 15.94C11.5505 15.2733 11.2905 14.6867 10.9305 14.18C10.5838 13.6733 10.1305 13.2733 9.57047 12.98C9.0238 12.6867 8.3638 12.54 7.59047 12.54H3.49047L3.65047 12.38V23.64L3.53047 23.44H7.59047ZM23.9659 23.5C24.1793 23.5 24.3593 23.5733 24.5059 23.72C24.6526 23.8667 24.7259 24.0467 24.7259 24.26C24.7259 24.4733 24.6526 24.6533 24.5059 24.8C24.3593 24.9333 24.1793 25 23.9659 25H16.7059C16.4659 25 16.2659 24.9333 16.1059 24.8C15.9593 24.6533 15.8859 24.46 15.8859 24.22C15.8859 24.0067 15.9659 23.8133 16.1259 23.64L20.6459 18.7C21.3126 17.98 21.8126 17.3067 22.1459 16.68C22.4926 16.04 22.6659 15.4733 22.6659 14.98C22.6659 14.1667 22.4193 13.52 21.9259 13.04C21.4459 12.5467 20.7993 12.3 19.9859 12.3C19.6259 12.3 19.2659 12.38 18.9059 12.54C18.5459 12.6867 18.2193 12.8933 17.9259 13.16C17.6326 13.4133 17.3926 13.7 17.2059 14.02C17.0993 14.1933 16.9859 14.3067 16.8659 14.36C16.7593 14.4 16.6459 14.42 16.5259 14.42C16.3259 14.42 16.1459 14.3533 15.9859 14.22C15.8259 14.0733 15.7459 13.9067 15.7459 13.72C15.7459 13.5733 15.7859 13.44 15.8659 13.32C15.9459 13.1867 16.0526 13.04 16.1859 12.88C16.4659 12.4933 16.8126 12.1467 17.2259 11.84C17.6526 11.52 18.1126 11.2667 18.6059 11.08C19.1126 10.8933 19.6059 10.8 20.0859 10.8C20.9393 10.8 21.6793 10.9667 22.3059 11.3C22.9459 11.6333 23.4393 12.1067 23.7859 12.72C24.1326 13.3333 24.3059 14.0533 24.3059 14.88C24.3059 15.5867 24.0926 16.3667 23.6659 17.22C23.2393 18.0733 22.6126 18.94 21.7859 19.82L18.2859 23.7L18.0859 23.5H23.9659ZM31.7778 25.2C30.6711 25.2 29.7445 24.8867 28.9978 24.26C28.2645 23.6333 27.7045 22.7733 27.3178 21.68C26.9445 20.5867 26.7578 19.36 26.7578 18C26.7578 16.6133 26.9445 15.38 27.3178 14.3C27.7045 13.22 28.2645 12.3667 28.9978 11.74C29.7445 11.1133 30.6711 10.8 31.7778 10.8C32.8845 10.8 33.8045 11.1133 34.5378 11.74C35.2845 12.3667 35.8445 13.22 36.2178 14.3C36.5911 15.38 36.7778 16.6133 36.7778 18C36.7778 19.36 36.5911 20.5867 36.2178 21.68C35.8445 22.7733 35.2845 23.6333 34.5378 24.26C33.8045 24.8867 32.8845 25.2 31.7778 25.2ZM31.7778 23.58C32.4845 23.58 33.0778 23.3533 33.5578 22.9C34.0511 22.4467 34.4245 21.8067 34.6778 20.98C34.9311 20.14 35.0578 19.1467 35.0578 18C35.0578 16.84 34.9311 15.8467 34.6778 15.02C34.4245 14.18 34.0511 13.54 33.5578 13.1C33.0778 12.6467 32.4845 12.42 31.7778 12.42C31.0711 12.42 30.4711 12.6467 29.9778 13.1C29.4978 13.54 29.1245 14.18 28.8578 15.02C28.6045 15.8467 28.4778 16.84 28.4778 18C28.4778 19.1467 28.6045 20.14 28.8578 20.98C29.1245 21.8067 29.4978 22.4467 29.9778 22.9C30.4711 23.3533 31.0711 23.58 31.7778 23.58Z" fill="white"/>

</svg>
