<svg width="35" height="37" viewBox="0 0 35 37" fill="none" xmlns="http://www.w3.org/2000/svg">
<path d="M17.5 1.14822L30.1261 27.25H4.87389L17.5 1.14822Z" stroke="#7CC662"/>
<path d="M17.5 33.4527L30.3039 27.75L4.69612 27.75L17.5 33.4527Z" stroke="#7CC662"/>
<line x1="17.5" y1="2" x2="17.5" y2="33" stroke="#7CC662"/>
<path d="M13.4735 11.56L13.0198 12.4512L13.0295 12.4561L13.0392 12.4608L13.4735 11.56ZM15.3335 13.08L14.5355 13.6826L14.5355 13.6826L15.3335 13.08ZM16.4335 15.34L15.4709 15.6107L15.4734 15.6198L15.4761 15.6287L16.4335 15.34ZM16.1535 21.52L17.0763 21.9054L17.078 21.9013L16.1535 21.52ZM14.1935 24.06L14.7795 24.8704L14.7876 24.8644L14.1935 24.06ZM5.33352 24.76L4.59636 25.4357L4.61104 25.4517L4.62641 25.4671L5.33352 24.76ZM5.33352 11.24L6.04062 11.9471L6.04062 11.9471L5.33352 11.24ZM13.2135 22.7L12.6109 21.9019L12.603 21.908L13.2135 22.7ZM14.6335 20.72L13.6959 20.3722L13.6935 20.3789L13.6911 20.3856L14.6335 20.72ZM14.8335 15.94L13.8611 16.1734L13.8639 16.1849L13.867 16.1964L14.8335 15.94ZM14.0535 14.18L13.2282 14.7447L13.2332 14.752L13.2383 14.7592L14.0535 14.18ZM12.6935 12.98L12.2207 13.8612L12.2295 13.8658L12.6935 12.98ZM6.61352 12.54L5.90641 11.8329L4.19931 13.54H6.61352V12.54ZM6.77352 12.38H7.77352V9.96578L6.06641 11.6729L6.77352 12.38ZM6.77352 23.64L5.91602 24.1545L7.77352 27.2503V23.64H6.77352ZM6.65352 23.44V22.44H4.88733L5.79602 23.9545L6.65352 23.44ZM10.9135 12C11.7579 12 12.4505 12.1613 13.0198 12.4512L13.9272 10.6688C13.0298 10.212 12.0158 10 10.9135 10V12ZM13.0392 12.4608C13.6445 12.7526 14.1392 13.1578 14.5355 13.6826L16.1316 12.4774C15.5412 11.6955 14.7958 11.0874 13.9078 10.6592L13.0392 12.4608ZM14.5355 13.6826C14.9477 14.2286 15.2618 14.8673 15.4709 15.6107L17.3962 15.0693C17.1253 14.106 16.706 13.2381 16.1316 12.4774L14.5355 13.6826ZM15.4761 15.6287C15.6995 16.3693 15.8135 17.1582 15.8135 18H17.8135C17.8135 16.9751 17.6742 15.9907 17.3909 15.0513L15.4761 15.6287ZM15.8135 18C15.8135 19.1635 15.614 20.2055 15.2291 21.1387L17.078 21.9013C17.573 20.7012 17.8135 19.3965 17.8135 18H15.8135ZM15.2308 21.1346C14.8561 22.0314 14.312 22.7294 13.5995 23.2556L14.7876 24.8644C15.8084 24.1106 16.5709 23.1152 17.0762 21.9054L15.2308 21.1346ZM13.6076 23.2496C12.9479 23.7266 12.0731 24 10.9135 24V26C12.3939 26 13.7058 25.6467 14.7795 24.8704L13.6076 23.2496ZM10.9135 24H5.91352V26H10.9135V24ZM5.91352 24C5.92036 24 5.94652 24.0018 5.98087 24.016C6.01525 24.0302 6.03531 24.0476 6.04062 24.0529L4.62641 25.4671C4.97431 25.815 5.42215 26 5.91352 26V24ZM6.07067 24.0843C6.07873 24.0931 6.09298 24.1126 6.10351 24.1403C6.11377 24.1674 6.11352 24.1838 6.11352 24.18H4.11352C4.11352 24.6447 4.27257 25.0825 4.59636 25.4357L6.07067 24.0843ZM6.11352 24.18V11.8H4.11352V24.18H6.11352ZM6.11352 11.8C6.11352 11.7956 6.11393 11.8183 6.09927 11.8557C6.08392 11.8947 6.06111 11.9266 6.04062 11.9471L4.62641 10.5329C4.27388 10.8854 4.11352 11.3352 4.11352 11.8H6.11352ZM6.04062 11.9471C6.03532 11.9524 6.01525 11.9698 5.98087 11.984C5.94652 11.9982 5.92036 12 5.91352 12V10C5.42215 10 4.97431 10.185 4.62641 10.5329L6.04062 11.9471ZM5.91352 12H10.9135V10H5.91352V12ZM10.7135 24.44C11.9005 24.44 12.9665 24.153 13.824 23.492L12.603 21.908C12.1805 22.2337 11.5798 22.44 10.7135 22.44V24.44ZM13.8161 23.498C14.637 22.8782 15.2221 22.0517 15.5759 21.0544L13.6911 20.3856C13.4583 21.0416 13.0967 21.5351 12.6109 21.902L13.8161 23.498ZM15.5711 21.0678C15.9237 20.1174 16.0935 19.0913 16.0935 18H14.0935C14.0935 18.882 13.9567 19.6693 13.6959 20.3722L15.5711 21.0678ZM16.0935 18C16.0935 17.1991 15.997 16.4258 15.8001 15.6836L13.867 16.1964C14.0167 16.7608 14.0935 17.3609 14.0935 18H16.0935ZM15.8059 15.7066C15.6192 14.9285 15.31 14.2219 14.8687 13.6008L13.2383 14.7592C13.517 15.1515 13.7279 15.6181 13.8611 16.1734L15.8059 15.7066ZM14.8788 13.6153C14.437 12.9696 13.8579 12.461 13.1575 12.0942L12.2295 13.8658C12.6491 14.0856 12.9767 14.3771 13.2282 14.7447L14.8788 13.6153ZM13.1663 12.0988C12.4427 11.7106 11.6119 11.54 10.7135 11.54V13.54C11.3618 13.54 11.851 13.6628 12.2207 13.8612L13.1663 12.0988ZM10.7135 11.54H6.61352V13.54H10.7135V11.54ZM7.32062 13.2471L7.48062 13.0871L6.06641 11.6729L5.90641 11.8329L7.32062 13.2471ZM5.77352 12.38V23.64H7.77352V12.38H5.77352ZM7.63101 23.1255L7.51101 22.9255L5.79602 23.9545L5.91602 24.1545L7.63101 23.1255ZM6.65352 24.44H10.7135V22.44H6.65352V24.44ZM24.629 24.76L23.8918 25.4357L23.9065 25.4517L23.9219 25.4671L24.629 24.76ZM24.409 13.24L24.7601 12.3037L23.409 11.797V13.24H24.409ZM24.729 13.36L25.5228 13.9681L26.3431 12.8973L25.0801 12.4237L24.729 13.36ZM19.949 19.6L19.0003 19.9162L19.5964 21.7047L20.7428 20.2081L19.949 19.6ZM19.869 19.36V18.36H18.4816L18.9203 19.6762L19.869 19.36ZM27.889 19.58L27.1819 20.2871L27.1819 20.2871L27.889 19.58ZM27.889 20.64L28.5617 21.3799L28.5793 21.3639L28.5961 21.3471L27.889 20.64ZM18.209 20.6L17.5019 21.3071L17.516 21.3212L17.5307 21.3348L18.209 20.6ZM18.169 19.52L18.9089 20.1927L18.9347 20.1643L18.9582 20.1341L18.169 19.52ZM24.549 11.32L25.3382 11.9341L25.3383 11.9339L24.549 11.32ZM24.869 11.08L25.1852 12.0287L25.231 12.0134L25.2751 11.9938L24.869 11.08ZM25.789 11.24L25.0518 11.9157L25.0665 11.9317L25.0819 11.9471L25.789 11.24ZM25.769 24.76L25.0619 24.0529L25.0465 24.0683L25.0318 24.0843L25.769 24.76ZM25.209 24C25.2158 24 25.242 24.0018 25.2763 24.016C25.3107 24.0302 25.3308 24.0476 25.3361 24.0529L23.9219 25.4671C24.2698 25.815 24.7176 26 25.209 26V24ZM25.3661 24.0843C25.3742 24.0931 25.3884 24.1126 25.399 24.1403C25.4092 24.1674 25.409 24.1838 25.409 24.18H23.409C23.409 24.6447 23.568 25.0825 23.8918 25.4357L25.3661 24.0843ZM25.409 24.18V13.24H23.409V24.18H25.409ZM24.0579 14.1763L24.3779 14.2963L25.0801 12.4237L24.7601 12.3037L24.0579 14.1763ZM23.9351 12.7519L19.1551 18.9919L20.7428 20.2081L25.5228 13.9681L23.9351 12.7519ZM20.8977 19.2838L20.8177 19.0438L18.9203 19.6762L19.0003 19.9162L20.8977 19.2838ZM19.869 20.36H27.349V18.36H19.869V20.36ZM27.349 20.36C27.339 20.36 27.3077 20.3578 27.2667 20.3411C27.2251 20.3242 27.1964 20.3016 27.1819 20.2871L28.5961 18.8729C28.256 18.5328 27.8191 18.36 27.349 18.36V20.36ZM27.1819 20.2871C27.1674 20.2726 27.1448 20.2439 27.1279 20.2023C27.1112 20.1613 27.109 20.13 27.109 20.12H29.109C29.109 19.6499 28.9362 19.213 28.5961 18.8729L27.1819 20.2871ZM27.109 20.12C27.109 20.0946 27.1143 20.0546 27.133 20.0104C27.1514 19.9669 27.1735 19.9413 27.1819 19.9329L28.5961 21.3471C28.9225 21.0207 29.109 20.596 29.109 20.12H27.109ZM27.2163 19.9001C27.2346 19.8834 27.2626 19.8649 27.2967 19.8523C27.3295 19.8401 27.3503 19.84 27.349 19.84V21.84C27.7904 21.84 28.2162 21.694 28.5617 21.3799L27.2163 19.9001ZM27.349 19.84H18.769V21.84H27.349V19.84ZM18.769 19.84C18.8065 19.84 18.8437 19.8484 18.8729 19.8609C18.8995 19.8723 18.9036 19.8802 18.8873 19.8652L17.5307 21.3348C17.8535 21.6328 18.2734 21.84 18.769 21.84V19.84ZM18.9161 19.8929C18.9158 19.8926 18.9326 19.9099 18.9481 19.9461C18.9642 19.9835 18.969 20.0182 18.969 20.04H16.969C16.969 20.5359 17.167 20.9722 17.5019 21.3071L18.9161 19.8929ZM18.969 20.04C18.969 20.0532 18.9663 20.0825 18.9523 20.119C18.9383 20.1556 18.9199 20.1806 18.9089 20.1927L17.429 18.8473C17.1267 19.1799 16.969 19.5937 16.969 20.04H18.969ZM18.9582 20.1341L25.3382 11.9341L23.7597 10.7059L17.3797 18.9059L18.9582 20.1341ZM25.3383 11.9339C25.3379 11.9345 25.3259 11.9498 25.299 11.97C25.271 11.991 25.2326 12.0129 25.1852 12.0287L24.5528 10.1313C24.2105 10.2454 23.9494 10.4621 23.7596 10.7061L25.3383 11.9339ZM25.2751 11.9938C25.2784 11.9924 25.2752 11.9941 25.2659 11.9962C25.2564 11.9983 25.2437 12 25.229 12V10C24.9563 10 24.6985 10.0614 24.4628 10.1662L25.2751 11.9938ZM25.229 12C25.2226 12 25.1899 11.9984 25.1451 11.9791C25.0992 11.9595 25.0676 11.933 25.0518 11.9157L26.5261 10.5643C26.1808 10.1875 25.7219 10 25.229 10V12ZM25.0819 11.9471C25.0614 11.9266 25.0386 11.8947 25.0232 11.8557C25.0086 11.8183 25.009 11.7956 25.009 11.8H27.009C27.009 11.3352 26.8486 10.8854 26.4961 10.5329L25.0819 11.9471ZM25.009 11.8V24.18H27.009V11.8H25.009ZM25.009 24.18C25.009 24.1732 25.0108 24.147 25.025 24.1126C25.0392 24.0783 25.0566 24.0582 25.0619 24.0529L26.4761 25.4671C26.824 25.1192 27.009 24.6714 27.009 24.18H25.009ZM25.0318 24.0843C25.0476 24.067 25.0792 24.0405 25.1251 24.0209C25.1699 24.0016 25.2026 24 25.209 24V26C25.7019 26 26.1608 25.8125 26.5061 25.4357L25.0318 24.0843Z" fill="black"/>
<path d="M10.9135 11C11.8868 11 12.7402 11.1867 13.4735 11.56C14.2202 11.92 14.8402 12.4267 15.3335 13.08C15.8268 13.7333 16.1935 14.4867 16.4335 15.34C16.6868 16.18 16.8135 17.0667 16.8135 18C16.8135 19.28 16.5935 20.4533 16.1535 21.52C15.7135 22.5733 15.0602 23.42 14.1935 24.06C13.3268 24.6867 12.2335 25 10.9135 25H5.91352C5.68685 25 5.49352 24.92 5.33352 24.76C5.18685 24.6 5.11352 24.4067 5.11352 24.18V11.8C5.11352 11.5733 5.18685 11.3867 5.33352 11.24C5.49352 11.08 5.68685 11 5.91352 11H10.9135ZM10.7135 23.44C11.7402 23.44 12.5735 23.1933 13.2135 22.7C13.8668 22.2067 14.3402 21.5467 14.6335 20.72C14.9402 19.8933 15.0935 18.9867 15.0935 18C15.0935 17.28 15.0068 16.5933 14.8335 15.94C14.6735 15.2733 14.4135 14.6867 14.0535 14.18C13.7068 13.6733 13.2535 13.2733 12.6935 12.98C12.1468 12.6867 11.4868 12.54 10.7135 12.54H6.61352L6.77352 12.38V23.64L6.65352 23.44H10.7135ZM25.209 25C24.9823 25 24.789 24.92 24.629 24.76C24.4823 24.6 24.409 24.4067 24.409 24.18V13.24L24.729 13.36L19.949 19.6L19.869 19.36H27.349C27.5623 19.36 27.7423 19.4333 27.889 19.58C28.0357 19.7267 28.109 19.9067 28.109 20.12C28.109 20.32 28.0357 20.4933 27.889 20.64C27.7423 20.7733 27.5623 20.84 27.349 20.84H18.769C18.569 20.84 18.3823 20.76 18.209 20.6C18.049 20.44 17.969 20.2533 17.969 20.04C17.969 19.84 18.0357 19.6667 18.169 19.52L24.549 11.32C24.6423 11.2 24.749 11.12 24.869 11.08C24.989 11.0267 25.109 11 25.229 11C25.4557 11 25.6423 11.08 25.789 11.24C25.9357 11.3867 26.009 11.5733 26.009 11.8V24.18C26.009 24.4067 25.929 24.6 25.769 24.76C25.6223 24.92 25.4357 25 25.209 25Z" fill="white"/>
</svg>
