<svg width="38" height="38" viewBox="0 0 38 38" fill="none" xmlns="http://www.w3.org/2000/svg">
<rect x="0.612372" y="8.37693" width="30" height="30" rx="0.5" transform="rotate(-15 0.612372 8.37693)" stroke="#306CB3"/>
<path d="M15.5126 12.56L15.0589 13.4512L15.0685 13.4561L15.0783 13.4608L15.5126 12.56ZM17.3726 14.08L16.5745 14.6826L16.5745 14.6826L17.3726 14.08ZM18.4726 16.34L17.5099 16.6107L17.5125 16.6198L17.5152 16.6287L18.4726 16.34ZM18.1926 22.52L19.1153 22.9054L19.117 22.9013L18.1926 22.52ZM16.2326 25.06L16.8186 25.8704L16.8266 25.8644L16.2326 25.06ZM7.37258 25.76L6.63542 26.4357L6.65011 26.4517L6.66547 26.4671L7.37258 25.76ZM7.37258 12.24L8.07968 12.9471L8.07969 12.9471L7.37258 12.24ZM15.2526 23.7L14.6499 22.9019L14.6421 22.908L15.2526 23.7ZM16.6726 21.72L15.735 21.3722L15.7325 21.3789L15.7302 21.3856L16.6726 21.72ZM16.8726 16.94L15.9002 17.1734L15.903 17.1849L15.906 17.1964L16.8726 16.94ZM16.0926 15.18L15.2673 15.7447L15.2723 15.752L15.2774 15.7592L16.0926 15.18ZM14.7326 13.98L14.2597 14.8612L14.2686 14.8658L14.7326 13.98ZM8.65258 13.54L7.94547 12.8329L6.23837 14.54H8.65258V13.54ZM8.81258 13.38H9.81258V10.9658L8.10547 12.6729L8.81258 13.38ZM8.81258 24.64L7.95509 25.1545L9.81258 28.2503V24.64H8.81258ZM8.69258 24.44V23.44H6.92639L7.83509 24.9545L8.69258 24.44ZM12.9526 13C13.7969 13 14.4896 13.1613 15.0589 13.4512L15.9663 11.6688C15.0689 11.212 14.0549 11 12.9526 11V13ZM15.0783 13.4608C15.6836 13.7526 16.1783 14.1578 16.5745 14.6826L18.1706 13.4774C17.5802 12.6955 16.8349 12.0874 15.9469 11.6592L15.0783 13.4608ZM16.5745 14.6826C16.9868 15.2286 17.3008 15.8673 17.5099 16.6107L19.4352 16.0693C19.1643 15.106 18.745 14.2381 18.1706 13.4774L16.5745 14.6826ZM17.5152 16.6287C17.7385 17.3693 17.8526 18.1582 17.8526 19H19.8526C19.8526 17.9751 19.7133 16.9907 19.43 16.0513L17.5152 16.6287ZM17.8526 19C17.8526 20.1635 17.6531 21.2055 17.2681 22.1387L19.117 22.9013C19.6121 21.7012 19.8526 20.3965 19.8526 19H17.8526ZM17.2698 22.1346C16.8952 23.0314 16.351 23.7294 15.6385 24.2556L16.8266 25.8644C17.8475 25.1106 18.61 24.1152 19.1153 22.9054L17.2698 22.1346ZM15.6466 24.2496C14.987 24.7266 14.1122 25 12.9526 25V27C14.433 27 15.7449 26.6467 16.8185 25.8704L15.6466 24.2496ZM12.9526 25H7.95258V27H12.9526V25ZM7.95258 25C7.95942 25 7.98558 25.0018 8.01993 25.016C8.05431 25.0302 8.07438 25.0476 8.07968 25.0529L6.66547 26.4671C7.01337 26.815 7.46121 27 7.95258 27V25ZM8.10973 25.0843C8.11779 25.0931 8.13204 25.1126 8.14258 25.1403C8.15284 25.1674 8.15258 25.1838 8.15258 25.18H6.15258C6.15258 25.6447 6.31164 26.0825 6.63542 26.4357L8.10973 25.0843ZM8.15258 25.18V12.8H6.15258V25.18H8.15258ZM8.15258 12.8C8.15258 12.7956 8.15299 12.8183 8.13833 12.8557C8.12299 12.8947 8.10018 12.9266 8.07968 12.9471L6.66547 11.5329C6.31294 11.8854 6.15258 12.3352 6.15258 12.8H8.15258ZM8.07969 12.9471C8.07438 12.9524 8.05432 12.9698 8.01993 12.984C7.98558 12.9982 7.95942 13 7.95258 13V11C7.46121 11 7.01337 11.185 6.66547 11.5329L8.07969 12.9471ZM7.95258 13H12.9526V11H7.95258V13ZM12.7526 25.44C13.9396 25.44 15.0056 25.153 15.8631 24.492L14.6421 22.908C14.2196 23.2337 13.6189 23.44 12.7526 23.44V25.44ZM15.8552 24.498C16.676 23.8782 17.2611 23.0517 17.615 22.0544L15.7302 21.3856C15.4974 22.0416 15.1358 22.5351 14.65 22.902L15.8552 24.498ZM17.6101 22.0678C17.9627 21.1174 18.1326 20.0913 18.1326 19H16.1326C16.1326 19.882 15.9958 20.6693 15.735 21.3722L17.6101 22.0678ZM18.1326 19C18.1326 18.1991 18.0361 17.4258 17.8391 16.6836L15.906 17.1964C16.0558 17.7608 16.1326 18.3609 16.1326 19H18.1326ZM17.845 16.7066C17.6582 15.9285 17.3491 15.2219 16.9078 14.6008L15.2774 15.7592C15.5561 16.1515 15.7669 16.6181 15.9002 17.1734L17.845 16.7066ZM16.9179 14.6153C16.476 13.9696 15.897 13.461 15.1966 13.0942L14.2686 14.8658C14.6882 15.0856 15.0158 15.3771 15.2673 15.7447L16.9179 14.6153ZM15.2054 13.0988C14.4818 12.7106 13.6509 12.54 12.7526 12.54V14.54C13.4009 14.54 13.89 14.6628 14.2598 14.8612L15.2054 13.0988ZM12.7526 12.54H8.65258V14.54H12.7526V12.54ZM9.35969 14.2471L9.51969 14.0871L8.10547 12.6729L7.94547 12.8329L9.35969 14.2471ZM7.81258 13.38V24.64H9.81258V13.38H7.81258ZM9.67007 24.1255L9.55007 23.9255L7.83509 24.9545L7.95509 25.1545L9.67007 24.1255ZM8.69258 25.44H12.7526V23.44H8.69258V25.44ZM23.468 25.78L23.0126 26.6702L23.0249 26.6765L23.0373 26.6825L23.468 25.78ZM22.028 24.6L22.8151 23.9831L22.8151 23.9831L22.028 24.6ZM21.148 22.94L20.1973 23.25L20.1973 23.25L21.148 22.94ZM21.068 19.12L20.0889 18.9168L20.0889 18.9168L21.068 19.12ZM21.728 16.96L20.803 16.5801L20.7996 16.5886L21.728 16.96ZM24.628 13L25.2528 13.7809L25.2621 13.7733L24.628 13ZM26.928 11.74L26.7111 10.7638L26.6585 10.7755L26.6075 10.7928L26.928 11.74ZM27.808 11.88L27.208 12.68L27.2448 12.7076L27.2839 12.7317L27.808 11.88ZM27.888 12.98L28.6313 13.649L28.6471 13.6315L28.662 13.6132L27.888 12.98ZM27.408 13.28L27.0918 12.3313L27.0743 12.3372L27.0569 12.3437L27.408 13.28ZM25.828 14.16L26.4213 14.9651L26.4248 14.9625L25.828 14.16ZM24.408 15.5L23.6447 14.8541L23.6431 14.8559L24.408 15.5ZM23.288 17.16L22.4057 16.6894L22.4018 16.6967L23.288 17.16ZM22.648 19L22.9643 19.9487L23.5225 19.7626L23.6309 19.1843L22.648 19ZM22.168 19.16L21.3218 18.6272L19.8325 20.9926L22.4843 20.1087L22.168 19.16ZM23.028 18.14L23.7063 18.8748L23.7063 18.8748L23.028 18.14ZM24.228 17.36L23.8341 16.4408L23.8244 16.4451L24.228 17.36ZM27.388 17.44L27.8353 16.5456L27.8353 16.5456L27.388 17.44ZM28.728 18.46L29.469 17.7885L29.469 17.7885L28.728 18.46ZM29.628 19.94L28.6936 20.296L28.6987 20.3096L28.7043 20.323L29.628 19.94ZM29.368 23.92L28.5018 23.4203L28.4988 23.4257L29.368 23.92ZM27.768 25.58L28.295 26.4299L28.2995 26.4271L27.768 25.58ZM26.928 24.32L27.4386 25.1799L27.4463 25.1752L26.928 24.32ZM27.968 23.24L28.8411 23.7279L28.8469 23.7171L27.968 23.24ZM27.028 19.02L26.4493 19.8355L26.4642 19.8461L26.4794 19.856L27.028 19.02ZM23.908 19L23.3826 18.1492L23.3826 18.1492L23.908 19ZM22.848 20.14L21.9636 19.6732L21.9588 19.6827L22.848 20.14ZM22.848 23.18L21.9643 23.6479L21.9643 23.6479L22.848 23.18ZM23.868 24.28L23.3311 25.1237L23.3426 25.1308L23.868 24.28ZM25.488 25.2C24.852 25.2 24.33 25.0833 23.8988 24.8775L23.0373 26.6825C23.7794 27.0367 24.6041 27.2 25.488 27.2V25.2ZM23.9235 24.8898C23.4756 24.6606 23.1099 24.3592 22.8151 23.9831L21.241 25.2169C21.7196 25.8275 22.3139 26.3128 23.0126 26.6702L23.9235 24.8898ZM22.8151 23.9831C22.5026 23.5844 22.2636 23.1355 22.0988 22.63L20.1973 23.25C20.4325 23.9711 20.7802 24.6289 21.241 25.2169L22.8151 23.9831ZM22.0988 22.63C21.9318 22.118 21.848 21.5894 21.848 21.04H19.848C19.848 21.7973 19.9643 22.5353 20.1973 23.25L22.0988 22.63ZM21.848 21.04C21.848 20.5498 21.911 19.9794 22.0472 19.3232L20.0889 18.9168C19.9318 19.674 19.848 20.3835 19.848 21.04H21.848ZM22.0472 19.3232C22.1809 18.6791 22.383 18.0153 22.6565 17.3314L20.7996 16.5886C20.4865 17.3714 20.2486 18.1476 20.0889 18.9168L22.0472 19.3232ZM22.6531 17.3399C22.9303 16.6648 23.287 16.0173 23.725 15.3967L22.0911 14.2433C21.5691 14.9827 21.1391 15.7618 20.803 16.5801L22.6531 17.3399ZM23.725 15.3967C24.1494 14.7954 24.6575 14.257 25.2527 13.7809L24.0034 12.2191C23.2652 12.8096 22.6266 13.4846 22.0911 14.2433L23.725 15.3967ZM25.2621 13.7733C25.83 13.3076 26.489 12.9443 27.2486 12.6872L26.6075 10.7928C25.6337 11.1224 24.7594 11.5991 23.994 12.2267L25.2621 13.7733ZM27.145 12.7162C27.1785 12.7087 27.204 12.7045 27.2221 12.7023C27.2403 12.7 27.2485 12.7 27.248 12.7V10.7C27.063 10.7 26.8813 10.726 26.7111 10.7638L27.145 12.7162ZM27.248 12.7C27.2599 12.7 27.2559 12.7015 27.242 12.697C27.2356 12.695 27.2288 12.6922 27.2222 12.6887C27.2157 12.6853 27.2109 12.6821 27.208 12.68L28.408 11.08C28.0631 10.8213 27.6624 10.7 27.248 10.7V12.7ZM27.2839 12.7317C27.2385 12.7037 27.1956 12.6673 27.159 12.6242C27.1229 12.5815 27.0996 12.5402 27.0855 12.5076C27.0591 12.4467 27.068 12.4255 27.068 12.48H29.068C29.068 12.0067 28.9202 11.3902 28.3321 11.0283L27.2839 12.7317ZM27.068 12.48C27.068 12.4641 27.071 12.4373 27.0822 12.4063C27.0933 12.3754 27.1072 12.3552 27.1141 12.3468L28.662 13.6132C28.9258 13.2909 29.068 12.9013 29.068 12.48H27.068ZM27.1448 12.311C27.1503 12.3049 27.1531 12.3039 27.148 12.307C27.1424 12.3105 27.1255 12.3201 27.0918 12.3313L27.7243 14.2287C28.0595 14.1169 28.3768 13.9318 28.6313 13.649L27.1448 12.311ZM27.0569 12.3437C26.4248 12.5807 25.8164 12.9225 25.2313 13.3575L26.4248 14.9625C26.8797 14.6242 27.3247 14.3793 27.7592 14.2163L27.0569 12.3437ZM25.2348 13.3549C24.6605 13.7781 24.1309 14.2794 23.6447 14.8541L25.1714 16.1459C25.5652 15.6806 25.9822 15.2885 26.4212 14.9651L25.2348 13.3549ZM23.6431 14.8559C23.1702 15.4175 22.7578 16.0293 22.4057 16.6894L24.1704 17.6306C24.4583 17.0907 24.7926 16.5958 25.173 16.1441L23.6431 14.8559ZM22.4018 16.6967C22.0501 17.3696 21.8037 18.0768 21.6652 18.8157L23.6309 19.1843C23.7324 18.6432 23.9127 18.1237 24.1743 17.6233L22.4018 16.6967ZM22.3318 18.0513L21.8518 18.2113L22.4843 20.1087L22.9643 19.9487L22.3318 18.0513ZM23.0143 19.6928C23.1893 19.4148 23.4173 19.1416 23.7063 18.8748L22.3498 17.4052C21.9454 17.7784 21.6001 18.1852 21.3218 18.6272L23.0143 19.6928ZM23.7063 18.8748C23.968 18.6333 24.2741 18.4327 24.6317 18.2749L23.8244 16.4451C23.2753 16.6873 22.7814 17.0067 22.3498 17.4052L23.7063 18.8748ZM24.622 18.2791C24.9548 18.1365 25.3263 18.06 25.748 18.06V16.06C25.0765 16.06 24.4346 16.1835 23.8341 16.4409L24.622 18.2791ZM25.748 18.06C26.1852 18.06 26.578 18.153 26.9408 18.3344L27.8353 16.5456C27.1847 16.2203 26.4842 16.06 25.748 16.06V18.06ZM26.9408 18.3344C27.3348 18.5314 27.6822 18.7952 27.9871 19.1315L29.469 17.7885C29.0005 17.2715 28.4547 16.8553 27.8353 16.5456L26.9408 18.3344ZM27.9871 19.1315C28.2868 19.4622 28.5227 19.8475 28.6936 20.296L30.5625 19.584C30.3067 18.9125 29.9427 18.3111 29.469 17.7885L27.9871 19.1315ZM28.7043 20.323C28.8799 20.7465 28.968 21.1896 28.968 21.66H30.968C30.968 20.9304 30.8295 20.2268 30.5518 19.557L28.7043 20.323ZM28.968 21.66C28.968 22.3009 28.8127 22.8814 28.5019 23.4203L30.2342 24.4197C30.7234 23.5719 30.968 22.6458 30.968 21.66H28.968ZM28.4988 23.4257C28.196 23.9581 27.7804 24.3917 27.2366 24.7329L28.2995 26.4271C29.1157 25.9149 29.7668 25.2419 30.2373 24.4143L28.4988 23.4257ZM27.2411 24.7301C26.7465 25.0367 26.1722 25.2 25.488 25.2V27.2C26.5106 27.2 27.4562 26.9499 28.295 26.4299L27.2411 24.7301ZM25.468 25.7C26.1756 25.7 26.842 25.5341 27.4386 25.1799L26.4175 23.4601C26.1607 23.6126 25.8538 23.7 25.468 23.7V25.7ZM27.4463 25.1752C28.0358 24.8179 28.5041 24.3308 28.841 23.7278L27.0951 22.7522C26.9254 23.0559 26.7003 23.2887 26.4097 23.4648L27.4463 25.1752ZM28.8469 23.7171C29.1878 23.0891 29.348 22.3955 29.348 21.66H27.348C27.348 22.0979 27.2549 22.4576 27.0892 22.7629L28.8469 23.7171ZM29.348 21.66C29.348 20.9703 29.2039 20.3132 28.9076 19.7031L27.1085 20.5769C27.2655 20.9001 27.348 21.2564 27.348 21.66H29.348ZM28.9076 19.7031C28.6035 19.077 28.1568 18.5646 27.5767 18.184L26.4794 19.856C26.7526 20.0354 26.9593 20.2697 27.1085 20.5769L28.9076 19.7031ZM27.6068 18.2045C26.9988 17.773 26.2883 17.58 25.528 17.58V19.58C25.9411 19.58 26.2307 19.6803 26.4493 19.8355L27.6068 18.2045ZM25.528 17.58C24.7489 17.58 24.0198 17.7556 23.3826 18.1492L24.4335 19.8508C24.703 19.6844 25.0539 19.58 25.528 19.58V17.58ZM23.3826 18.1492C22.7745 18.5247 22.2986 19.0386 21.9637 19.6732L23.7324 20.6068C23.9041 20.2814 24.1349 20.0353 24.4335 19.8508L23.3826 18.1492ZM21.9588 19.6827C21.6394 20.3036 21.488 20.9826 21.488 21.7H23.488C23.488 21.2707 23.5767 20.9098 23.7373 20.5973L21.9588 19.6827ZM21.488 21.7C21.488 22.3897 21.6449 23.0446 21.9643 23.6479L23.7318 22.7121C23.5712 22.4087 23.488 22.0769 23.488 21.7H21.488ZM21.9643 23.6479C22.2868 24.2571 22.7475 24.7522 23.3312 25.1237L24.4049 23.4363C24.1086 23.2478 23.8893 23.0096 23.7318 22.7121L21.9643 23.6479ZM23.3426 25.1308C23.9765 25.5223 24.6977 25.7 25.468 25.7V23.7C25.0117 23.7 24.6663 23.5976 24.3935 23.4292L23.3426 25.1308Z" fill="black"/>
<path d="M12.9526 12C13.9259 12 14.7792 12.1867 15.5126 12.56C16.2592 12.92 16.8792 13.4267 17.3726 14.08C17.8659 14.7333 18.2326 15.4867 18.4726 16.34C18.7259 17.18 18.8526 18.0667 18.8526 19C18.8526 20.28 18.6326 21.4533 18.1926 22.52C17.7526 23.5733 17.0992 24.42 16.2326 25.06C15.3659 25.6867 14.2726 26 12.9526 26H7.95258C7.72591 26 7.53258 25.92 7.37258 25.76C7.22591 25.6 7.15258 25.4067 7.15258 25.18V12.8C7.15258 12.5733 7.22591 12.3867 7.37258 12.24C7.53258 12.08 7.72591 12 7.95258 12H12.9526ZM12.7526 24.44C13.7792 24.44 14.6126 24.1933 15.2526 23.7C15.9059 23.2067 16.3792 22.5467 16.6726 21.72C16.9792 20.8933 17.1326 19.9867 17.1326 19C17.1326 18.28 17.0459 17.5933 16.8726 16.94C16.7126 16.2733 16.4526 15.6867 16.0926 15.18C15.7459 14.6733 15.2926 14.2733 14.7326 13.98C14.1859 13.6867 13.5259 13.54 12.7526 13.54H8.65258L8.81258 13.38V24.64L8.69258 24.44H12.7526ZM25.488 26.2C24.728 26.2 24.0547 26.06 23.468 25.78C22.8947 25.4867 22.4147 25.0933 22.028 24.6C21.6414 24.1067 21.348 23.5533 21.148 22.94C20.948 22.3267 20.848 21.6933 20.848 21.04C20.848 20.4667 20.9214 19.8267 21.068 19.12C21.2147 18.4133 21.4347 17.6933 21.728 16.96C22.0347 16.2133 22.428 15.5 22.908 14.82C23.388 14.14 23.9614 13.5333 24.628 13C25.2947 12.4533 26.0614 12.0333 26.928 11.74C27.048 11.7133 27.1547 11.7 27.248 11.7C27.4614 11.7 27.648 11.76 27.808 11.88C27.9814 11.9867 28.068 12.1867 28.068 12.48C28.068 12.6667 28.008 12.8333 27.888 12.98C27.768 13.1133 27.608 13.2133 27.408 13.28C26.8747 13.48 26.348 13.7733 25.828 14.16C25.3214 14.5333 24.848 14.98 24.408 15.5C23.9814 16.0067 23.608 16.56 23.288 17.16C22.9814 17.7467 22.768 18.36 22.648 19L22.168 19.16C22.3947 18.8 22.6814 18.46 23.028 18.14C23.3747 17.82 23.7747 17.56 24.228 17.36C24.6947 17.16 25.2014 17.06 25.748 17.06C26.3347 17.06 26.8814 17.1867 27.388 17.44C27.8947 17.6933 28.3414 18.0333 28.728 18.46C29.1147 18.8867 29.4147 19.38 29.628 19.94C29.8547 20.4867 29.968 21.06 29.968 21.66C29.968 22.4733 29.768 23.2267 29.368 23.92C28.9814 24.6 28.448 25.1533 27.768 25.58C27.1014 25.9933 26.3414 26.2 25.488 26.2ZM25.468 24.7C26.0147 24.7 26.5014 24.5733 26.928 24.32C27.368 24.0533 27.7147 23.6933 27.968 23.24C28.2214 22.7733 28.348 22.2467 28.348 21.66C28.348 21.1133 28.2347 20.6067 28.008 20.14C27.7814 19.6733 27.4547 19.3 27.028 19.02C26.6147 18.7267 26.1147 18.58 25.528 18.58C24.9014 18.58 24.3614 18.72 23.908 19C23.4547 19.28 23.1014 19.66 22.848 20.14C22.608 20.6067 22.488 21.1267 22.488 21.7C22.488 22.2333 22.608 22.7267 22.848 23.18C23.088 23.6333 23.428 24 23.868 24.28C24.3214 24.56 24.8547 24.7 25.468 24.7Z" fill="white"/>

</svg>
