<svg width="35" height="32" viewBox="0 0 35 32" fill="none" xmlns="http://www.w3.org/2000/svg">
<path d="M17.5 0.904952L29.9921 19.75L5.00793 19.75L17.5 0.904952Z" stroke="#55B7E1"/>
<path d="M17.5 24.285L29.4994 20.3851H5.50059L17.5 24.285Z" stroke="#55B7E1"/>
<line x1="17.5" y1="1.45947" x2="17.5" y2="24.0811" stroke="#55B7E1"/>
<path d="M17.5 31.3652L29.4727 22L5.52735 22L17.5 31.3652Z" stroke="#55B7E1"/>
<path d="M17.5 19.6422L26.6797 21.1892H8.32026L17.5 19.6422Z" stroke="#55B7E1"/>
<line y1="-0.5" x2="11.7297" y2="-0.5" transform="matrix(0 -1 -1 0 17 31.2432)" stroke="#55B7E1"/>
<path d="M14.5126 11.56L14.0589 12.4512L14.0685 12.4561L14.0783 12.4608L14.5126 11.56ZM16.3726 13.08L15.5745 13.6826L15.5745 13.6826L16.3726 13.08ZM17.4726 15.34L16.5099 15.6107L16.5125 15.6198L16.5152 15.6287L17.4726 15.34ZM17.1926 21.52L18.1153 21.9054L18.117 21.9013L17.1926 21.52ZM15.2326 24.06L15.8186 24.8704L15.8266 24.8644L15.2326 24.06ZM6.37258 24.76L5.63542 25.4357L5.65011 25.4517L5.66547 25.4671L6.37258 24.76ZM6.37258 11.24L7.07968 11.9471L7.07969 11.9471L6.37258 11.24ZM14.2526 22.7L13.6499 21.9019L13.6421 21.908L14.2526 22.7ZM15.6726 20.72L14.735 20.3722L14.7325 20.3789L14.7302 20.3856L15.6726 20.72ZM15.8726 15.94L14.9002 16.1734L14.903 16.1849L14.906 16.1964L15.8726 15.94ZM15.0926 14.18L14.2673 14.7447L14.2723 14.752L14.2774 14.7592L15.0926 14.18ZM13.7326 12.98L13.2597 13.8612L13.2686 13.8658L13.7326 12.98ZM7.65258 12.54L6.94547 11.8329L5.23837 13.54H7.65258V12.54ZM7.81258 12.38H8.81258V9.96578L7.10547 11.6729L7.81258 12.38ZM7.81258 23.64L6.95509 24.1545L8.81258 27.2503V23.64H7.81258ZM7.69258 23.44V22.44H5.92639L6.83509 23.9545L7.69258 23.44ZM11.9526 12C12.7969 12 13.4896 12.1613 14.0589 12.4512L14.9663 10.6688C14.0689 10.212 13.0549 10 11.9526 10V12ZM14.0783 12.4608C14.6836 12.7526 15.1783 13.1578 15.5745 13.6826L17.1706 12.4774C16.5802 11.6955 15.8349 11.0874 14.9469 10.6592L14.0783 12.4608ZM15.5745 13.6826C15.9868 14.2286 16.3008 14.8673 16.5099 15.6107L18.4352 15.0693C18.1643 14.106 17.745 13.2381 17.1706 12.4774L15.5745 13.6826ZM16.5152 15.6287C16.7385 16.3693 16.8526 17.1582 16.8526 18H18.8526C18.8526 16.9751 18.7133 15.9907 18.43 15.0513L16.5152 15.6287ZM16.8526 18C16.8526 19.1635 16.6531 20.2055 16.2681 21.1387L18.117 21.9013C18.6121 20.7012 18.8526 19.3965 18.8526 18H16.8526ZM16.2698 21.1346C15.8952 22.0314 15.351 22.7294 14.6385 23.2556L15.8266 24.8644C16.8475 24.1106 17.61 23.1152 18.1153 21.9054L16.2698 21.1346ZM14.6466 23.2496C13.987 23.7266 13.1122 24 11.9526 24V26C13.433 26 14.7449 25.6467 15.8185 24.8704L14.6466 23.2496ZM11.9526 24H6.95258V26H11.9526V24ZM6.95258 24C6.95942 24 6.98558 24.0018 7.01993 24.016C7.05431 24.0302 7.07438 24.0476 7.07968 24.0529L5.66547 25.4671C6.01337 25.815 6.46121 26 6.95258 26V24ZM7.10973 24.0843C7.11779 24.0931 7.13204 24.1126 7.14258 24.1403C7.15284 24.1674 7.15258 24.1838 7.15258 24.18H5.15258C5.15258 24.6447 5.31164 25.0825 5.63542 25.4357L7.10973 24.0843ZM7.15258 24.18V11.8H5.15258V24.18H7.15258ZM7.15258 11.8C7.15258 11.7956 7.15299 11.8183 7.13833 11.8557C7.12299 11.8947 7.10018 11.9266 7.07968 11.9471L5.66547 10.5329C5.31294 10.8854 5.15258 11.3352 5.15258 11.8H7.15258ZM7.07969 11.9471C7.07438 11.9524 7.05432 11.9698 7.01993 11.984C6.98558 11.9982 6.95942 12 6.95258 12V10C6.46121 10 6.01337 10.185 5.66547 10.5329L7.07969 11.9471ZM6.95258 12H11.9526V10H6.95258V12ZM11.7526 24.44C12.9396 24.44 14.0056 24.153 14.8631 23.492L13.6421 21.908C13.2196 22.2337 12.6189 22.44 11.7526 22.44V24.44ZM14.8552 23.498C15.676 22.8782 16.2611 22.0517 16.615 21.0544L14.7302 20.3856C14.4974 21.0416 14.1358 21.5351 13.65 21.902L14.8552 23.498ZM16.6101 21.0678C16.9627 20.1174 17.1326 19.0913 17.1326 18H15.1326C15.1326 18.882 14.9958 19.6693 14.735 20.3722L16.6101 21.0678ZM17.1326 18C17.1326 17.1991 17.0361 16.4258 16.8391 15.6836L14.906 16.1964C15.0558 16.7608 15.1326 17.3609 15.1326 18H17.1326ZM16.845 15.7066C16.6582 14.9285 16.3491 14.2219 15.9078 13.6008L14.2774 14.7592C14.5561 15.1515 14.7669 15.6181 14.9002 16.1734L16.845 15.7066ZM15.9179 13.6153C15.476 12.9696 14.897 12.461 14.1966 12.0942L13.2686 13.8658C13.6882 14.0856 14.0158 14.3771 14.2673 14.7447L15.9179 13.6153ZM14.2054 12.0988C13.4818 11.7106 12.6509 11.54 11.7526 11.54V13.54C12.4009 13.54 12.89 13.6628 13.2598 13.8612L14.2054 12.0988ZM11.7526 11.54H7.65258V13.54H11.7526V11.54ZM8.35969 13.2471L8.51969 13.0871L7.10547 11.6729L6.94547 11.8329L8.35969 13.2471ZM6.81258 12.38V23.64H8.81258V12.38H6.81258ZM8.67007 23.1255L8.55007 22.9255L6.83509 23.9545L6.95509 24.1545L8.67007 23.1255ZM7.69258 24.44H11.7526V22.44H7.69258V24.44ZM26.168 17.94L25.1781 18.0814L25.3645 19.3861L26.5708 18.8553L26.168 17.94ZM26.128 17.66L26.522 16.7409L24.8865 16.0399L25.1381 17.8014L26.128 17.66ZM27.388 18.48L26.7076 19.2128L26.7076 19.2128L27.388 18.48ZM28.268 19.68L27.3632 20.1058L27.3709 20.122L27.3791 20.138L28.268 19.68ZM28.008 23.12L27.1704 22.5737L27.1675 22.5783L28.008 23.12ZM26.408 24.56L25.9401 23.6762L25.9329 23.6801L26.408 24.56ZM21.928 24.56L22.4032 23.6801L22.4032 23.6801L21.928 24.56ZM20.328 23.12L19.4821 23.6533L19.4889 23.6641L19.496 23.6747L20.328 23.12ZM20.108 19.54L19.2351 19.0522L19.2296 19.0621L19.2243 19.0721L20.108 19.54ZM21.048 18.38L20.4105 17.6096L20.4038 17.6151L20.3973 17.6207L21.048 18.38ZM22.248 17.62L23.2025 17.9183L23.8671 15.7916L21.8365 16.7086L22.248 17.62ZM22.148 17.94L21.7584 18.861L22.7737 19.2905L23.1025 18.2383L22.148 17.94ZM21.148 17.3L20.4568 18.0226L20.4729 18.038L20.4895 18.0526L21.148 17.3ZM20.388 16.26L19.4878 16.6956L19.4936 16.7072L20.388 16.26ZM20.628 12.9L21.4804 13.423L21.4804 13.423L20.628 12.9ZM22.108 11.52L22.5777 12.4029L22.5849 12.399L22.5921 12.395L22.108 11.52ZM26.228 11.52L25.736 12.3906L25.7432 12.3947L25.7505 12.3986L26.228 11.52ZM27.688 12.9L26.8357 13.423L26.84 13.43L26.8444 13.4369L27.688 12.9ZM27.928 16.3L28.8105 16.7706L28.8167 16.7586L27.928 16.3ZM27.128 17.32L27.7842 18.0746L27.7866 18.0726L27.128 17.32ZM22.028 16.14L21.1678 16.6498L21.1746 16.6614L21.1818 16.6728L22.028 16.14ZM22.928 17L22.4319 17.8682L22.4501 17.8786L22.4686 17.8882L22.928 17ZM25.388 17L25.8737 17.8742L25.8842 17.8682L25.388 17ZM26.288 16.14L25.4418 15.6072L25.4418 15.6072L26.288 16.14ZM25.928 13.18L25.2209 13.8871L25.2313 13.8975L25.242 13.9076L25.928 13.18ZM22.388 13.18L23.0845 13.8976L23.0848 13.8973L22.388 13.18ZM26.188 22.88L25.519 22.1366L25.5098 22.1452L26.188 22.88ZM26.608 19.8L25.7716 20.348L25.776 20.3548L25.7806 20.3615L26.608 19.8ZM25.588 18.9L25.1189 19.7831L25.1298 19.7889L25.1408 19.7944L25.588 18.9ZM22.768 18.9L23.2153 19.7944L23.2263 19.7889L23.2372 19.7831L22.768 18.9ZM21.748 19.8L22.5755 20.3615L22.5801 20.3548L22.5845 20.348L21.748 19.8ZM22.148 22.88L21.4697 23.6149L21.4791 23.6233L22.148 22.88ZM27.158 17.7986L27.118 17.5186L25.1381 17.8014L25.1781 18.0814L27.158 17.7986ZM25.7341 18.5791C26.0949 18.7338 26.4181 18.944 26.7076 19.2128L28.0685 17.7472C27.6114 17.3227 27.0945 16.9862 26.522 16.7409L25.7341 18.5791ZM26.7076 19.2128C26.9888 19.4739 27.2053 19.7702 27.3632 20.1058L29.1729 19.2542C28.9041 18.6831 28.5339 18.1794 28.0685 17.7472L26.7076 19.2128ZM27.3791 20.138C27.5291 20.4291 27.608 20.751 27.608 21.12H29.608C29.608 20.449 29.4604 19.8109 29.157 19.222L27.3791 20.138ZM27.608 21.12C27.608 21.6425 27.4664 22.12 27.1704 22.5737L28.8457 23.6663C29.3497 22.8934 29.608 22.0375 29.608 21.12H27.608ZM27.1675 22.5783C26.8808 23.0231 26.4808 23.39 25.9402 23.6762L26.8759 25.4438C27.6953 25.01 28.3619 24.4169 28.8486 23.6617L27.1675 22.5783ZM25.9329 23.6801C25.4252 23.9542 24.8443 24.1 24.168 24.1V26.1C25.1451 26.1 26.0575 25.8858 26.8832 25.4399L25.9329 23.6801ZM24.168 24.1C23.4918 24.1 22.9109 23.9542 22.4032 23.6801L21.4529 25.4399C22.2786 25.8858 23.191 26.1 24.168 26.1V24.1ZM22.4032 23.6801C21.8727 23.3937 21.4649 23.0224 21.1601 22.5653L19.496 23.6747C19.9912 24.4176 20.65 25.0063 21.4529 25.4399L22.4032 23.6801ZM21.174 22.5867C20.8872 22.1318 20.748 21.6499 20.748 21.12H18.748C18.748 22.0301 18.9955 22.8815 19.4821 23.6533L21.174 22.5867ZM20.748 21.12C20.748 20.6554 20.8401 20.2944 20.9918 20.0079L19.2243 19.0721C18.8959 19.6923 18.748 20.3846 18.748 21.12H20.748ZM20.981 20.0278C21.1801 19.6715 21.4199 19.3783 21.6988 19.1393L20.3973 17.6207C19.9295 18.0217 19.5427 18.5018 19.2351 19.0522L20.981 20.0278ZM21.6856 19.1504C22.0108 18.8813 22.3357 18.6777 22.6596 18.5314L21.8365 16.7086C21.3337 16.9357 20.8586 17.2387 20.4105 17.6096L21.6856 19.1504ZM21.2936 17.3217L21.1936 17.6417L23.1025 18.2383L23.2025 17.9183L21.2936 17.3217ZM22.5377 17.019C22.3008 16.9188 22.0567 16.7663 21.8066 16.5474L20.4895 18.0526C20.8794 18.3937 21.3019 18.6678 21.7584 18.861L22.5377 17.019ZM21.8393 16.5774C21.6201 16.3677 21.4339 16.1156 21.2825 15.8128L19.4936 16.7072C19.7422 17.2044 20.0627 17.6457 20.4568 18.0226L21.8393 16.5774ZM21.2882 15.8244C21.1621 15.5639 21.088 15.2492 21.088 14.86H19.088C19.088 15.5108 19.214 16.1294 19.4879 16.6956L21.2882 15.8244ZM21.088 14.86C21.088 14.3157 21.2215 13.8449 21.4804 13.423L19.7757 12.377C19.3146 13.1284 19.088 13.9643 19.088 14.86H21.088ZM21.4804 13.423C21.7441 12.9932 22.1032 12.6552 22.5777 12.4029L21.6384 10.6371C20.8596 11.0514 20.2319 11.6335 19.7757 12.377L21.4804 13.423ZM22.5921 12.395C23.0642 12.1339 23.5832 12 24.168 12V10C23.2595 10 22.4052 10.2128 21.624 10.645L22.5921 12.395ZM24.168 12C24.7696 12 25.2845 12.1354 25.736 12.3906L26.7201 10.6494C25.9449 10.2113 25.0865 10 24.168 10V12ZM25.7505 12.3986C26.2122 12.6495 26.5687 12.9879 26.8357 13.423L28.5404 12.377C28.0874 11.6388 27.4705 11.0571 26.7056 10.6414L25.7505 12.3986ZM26.8444 13.4369C27.1119 13.8572 27.248 14.3231 27.248 14.86H29.248C29.248 13.9569 29.0109 13.1161 28.5317 12.3631L26.8444 13.4369ZM27.248 14.86C27.248 15.275 27.1678 15.5927 27.0394 15.8414L28.8167 16.7586C29.115 16.1806 29.248 15.5383 29.248 14.86H27.248ZM27.0457 15.8294C26.8855 16.1298 26.6926 16.3722 26.4695 16.5674L27.7866 18.0726C28.2035 17.7078 28.5439 17.2702 28.8104 16.7706L27.0457 15.8294ZM26.4719 16.5654C26.2324 16.7736 25.9966 16.9229 25.7653 17.0247L26.5708 18.8553C27.0062 18.6637 27.4103 18.3997 27.7842 18.0746L26.4719 16.5654ZM20.708 14.88C20.708 15.5126 20.8502 16.1139 21.1678 16.6498L22.8883 15.6302C22.7792 15.4461 22.708 15.2074 22.708 14.88H20.708ZM21.1818 16.6728C21.4969 17.1732 21.9177 17.5744 22.4319 17.8682L23.4242 16.1318C23.1917 15.9989 23.0126 15.8268 22.8743 15.6072L21.1818 16.6728ZM22.4686 17.8882C22.9989 18.1625 23.57 18.3 24.168 18.3V16.3C23.8861 16.3 23.6306 16.2375 23.3875 16.1118L22.4686 17.8882ZM24.168 18.3C24.7738 18.3 25.3505 18.1648 25.8737 17.8742L24.9024 16.1258C24.7056 16.2352 24.469 16.3 24.168 16.3V18.3ZM25.8842 17.8682C26.3984 17.5744 26.8192 17.1732 27.1343 16.6728L25.4418 15.6072C25.3035 15.8268 25.1244 15.9989 24.8919 16.1318L25.8842 17.8682ZM27.1343 16.6728C27.4739 16.1334 27.628 15.5237 27.628 14.88H25.628C25.628 15.1963 25.5555 15.4266 25.4418 15.6072L27.1343 16.6728ZM27.628 14.88C27.628 13.9361 27.2985 13.0978 26.6141 12.4524L25.242 13.9076C25.4909 14.1422 25.628 14.4372 25.628 14.88H27.628ZM26.6352 12.4729C25.9705 11.8082 25.1176 11.5 24.168 11.5V13.5C24.6585 13.5 24.9789 13.6451 25.2209 13.8871L26.6352 12.4729ZM24.168 11.5C23.2182 11.5 22.3652 11.808 21.6913 12.4627L23.0848 13.8973C23.3442 13.6453 23.6779 13.5 24.168 13.5V11.5ZM21.6916 12.4624C21.0243 13.1101 20.708 13.9454 20.708 14.88H22.708C22.708 14.4279 22.8452 14.1299 23.0845 13.8976L21.6916 12.4624ZM24.168 24.6C25.201 24.6 26.131 24.2936 26.8663 23.6148L25.5098 22.1452C25.2051 22.4264 24.7884 22.6 24.168 22.6V24.6ZM26.857 23.6233C27.5974 22.957 27.988 22.0951 27.988 21.1H25.988C25.988 21.5182 25.8454 21.843 25.5191 22.1367L26.857 23.6233ZM27.988 21.1C27.988 20.426 27.8118 19.793 27.4355 19.2385L25.7806 20.3615C25.911 20.5537 25.988 20.7873 25.988 21.1H27.988ZM27.4445 19.252C27.0911 18.7126 26.6147 18.2953 26.0353 18.0056L25.1408 19.7944C25.4147 19.9314 25.6183 20.1141 25.7716 20.348L27.4445 19.252ZM26.0572 18.0169C25.4752 17.7077 24.8388 17.56 24.168 17.56V19.56C24.5373 19.56 24.8476 19.639 25.1189 19.7831L26.0572 18.0169ZM24.168 17.56C23.506 17.56 22.8771 17.7097 22.2989 18.0169L23.2372 19.7831C23.5123 19.637 23.8167 19.56 24.168 19.56V17.56ZM22.3208 18.0056C21.7414 18.2953 21.265 18.7126 20.9116 19.252L22.5845 20.348C22.7378 20.1141 22.9414 19.9314 23.2153 19.7944L22.3208 18.0056ZM20.9206 19.2385C20.5443 19.793 20.368 20.426 20.368 21.1H22.368C22.368 20.7873 22.4451 20.5537 22.5755 20.3615L20.9206 19.2385ZM20.368 21.1C20.368 22.0862 20.745 22.9458 21.4698 23.6148L22.8263 22.1452C22.5111 21.8542 22.368 21.5271 22.368 21.1H20.368ZM21.4791 23.6233C22.2207 24.2908 23.143 24.6 24.168 24.6V22.6C23.5664 22.6 23.142 22.4292 22.817 22.1367L21.4791 23.6233Z" fill="black"/>
<path d="M11.9526 11C12.9259 11 13.7792 11.1867 14.5126 11.56C15.2592 11.92 15.8792 12.4267 16.3726 13.08C16.8659 13.7333 17.2326 14.4867 17.4726 15.34C17.7259 16.18 17.8526 17.0667 17.8526 18C17.8526 19.28 17.6326 20.4533 17.1926 21.52C16.7526 22.5733 16.0992 23.42 15.2326 24.06C14.3659 24.6867 13.2726 25 11.9526 25H6.95258C6.72591 25 6.53258 24.92 6.37258 24.76C6.22591 24.6 6.15258 24.4067 6.15258 24.18V11.8C6.15258 11.5733 6.22591 11.3867 6.37258 11.24C6.53258 11.08 6.72591 11 6.95258 11H11.9526ZM11.7526 23.44C12.7792 23.44 13.6126 23.1933 14.2526 22.7C14.9059 22.2067 15.3792 21.5467 15.6726 20.72C15.9792 19.8933 16.1326 18.9867 16.1326 18C16.1326 17.28 16.0459 16.5933 15.8726 15.94C15.7126 15.2733 15.4526 14.6867 15.0926 14.18C14.7459 13.6733 14.2926 13.2733 13.7326 12.98C13.1859 12.6867 12.5259 12.54 11.7526 12.54H7.65258L7.81258 12.38V23.64L7.69258 23.44H11.7526ZM26.168 17.94L26.128 17.66C26.5947 17.86 27.0147 18.1333 27.388 18.48C27.7614 18.8267 28.0547 19.2267 28.268 19.68C28.4947 20.12 28.608 20.6 28.608 21.12C28.608 21.84 28.408 22.5067 28.008 23.12C27.6214 23.72 27.088 24.2 26.408 24.56C25.7414 24.92 24.9947 25.1 24.168 25.1C23.3414 25.1 22.5947 24.92 21.928 24.56C21.2614 24.2 20.728 23.72 20.328 23.12C19.9414 22.5067 19.748 21.84 19.748 21.12C19.748 20.52 19.868 19.9933 20.108 19.54C20.3614 19.0867 20.6747 18.7 21.048 18.38C21.4347 18.06 21.8347 17.8067 22.248 17.62L22.148 17.94C21.8014 17.7933 21.468 17.58 21.148 17.3C20.8414 17.0067 20.588 16.66 20.388 16.26C20.188 15.8467 20.088 15.38 20.088 14.86C20.088 14.14 20.268 13.4867 20.628 12.9C20.988 12.3133 21.4814 11.8533 22.108 11.52C22.7347 11.1733 23.4214 11 24.168 11C24.928 11 25.6147 11.1733 26.228 11.52C26.8414 11.8533 27.328 12.3133 27.688 12.9C28.0614 13.4867 28.248 14.14 28.248 14.86C28.248 15.4067 28.1414 15.8867 27.928 16.3C27.7147 16.7 27.448 17.04 27.128 17.32C26.8214 17.5867 26.5014 17.7933 26.168 17.94ZM21.708 14.88C21.708 15.36 21.8147 15.78 22.028 16.14C22.2547 16.5 22.5547 16.7867 22.928 17C23.3147 17.2 23.728 17.3 24.168 17.3C24.6214 17.3 25.028 17.2 25.388 17C25.7614 16.7867 26.0614 16.5 26.288 16.14C26.5147 15.78 26.628 15.36 26.628 14.88C26.628 14.1867 26.3947 13.62 25.928 13.18C25.4747 12.7267 24.888 12.5 24.168 12.5C23.448 12.5 22.8547 12.7267 22.388 13.18C21.9347 13.62 21.708 14.1867 21.708 14.88ZM24.168 23.6C24.9947 23.6 25.668 23.36 26.188 22.88C26.7214 22.4 26.988 21.8067 26.988 21.1C26.988 20.6067 26.8614 20.1733 26.608 19.8C26.3547 19.4133 26.0147 19.1133 25.588 18.9C25.1614 18.6733 24.688 18.56 24.168 18.56C23.6614 18.56 23.1947 18.6733 22.768 18.9C22.3414 19.1133 22.0014 19.4133 21.748 19.8C21.4947 20.1733 21.368 20.6067 21.368 21.1C21.368 21.8067 21.628 22.4 22.148 22.88C22.6814 23.36 23.3547 23.6 24.168 23.6Z" fill="white"/>

</svg>
